<svg width="85" height="16" viewBox="0 0 85 16" fill="none" xmlns="http://www.w3.org/2000/svg">
<path d="M13.3931 6.01953H10.4379C10.3839 5.63719 10.2737 5.29758 10.1072 5.00071C9.94082 4.69934 9.72715 4.44294 9.46626 4.23153C9.20537 4.02012 8.904 3.85819 8.56215 3.74574C8.22479 3.63329 7.85819 3.57706 7.46236 3.57706C6.74716 3.57706 6.12417 3.75473 5.5934 4.11008C5.06262 4.46094 4.65104 4.97372 4.35867 5.64844C4.06629 6.31865 3.9201 7.13281 3.9201 8.09091C3.9201 9.07599 4.06629 9.90365 4.35867 10.5739C4.65554 11.2441 5.06937 11.7501 5.60014 12.092C6.13092 12.4338 6.74491 12.6048 7.44212 12.6048C7.83345 12.6048 8.19555 12.553 8.52841 12.4496C8.86577 12.3461 9.16489 12.1954 9.42578 11.9975C9.68667 11.7951 9.90258 11.55 10.0735 11.2621C10.2489 10.9742 10.3704 10.6458 10.4379 10.277L13.3931 10.2905C13.3166 10.9247 13.1255 11.5365 12.8196 12.1257C12.5182 12.7105 12.1112 13.2345 11.5984 13.6978C11.0901 14.1566 10.4828 14.521 9.77663 14.7908C9.07493 15.0562 8.28101 15.1889 7.39489 15.1889C6.16241 15.1889 5.06037 14.91 4.08878 14.3523C3.12169 13.7945 2.35701 12.9871 1.79474 11.93C1.23698 10.873 0.958097 9.59328 0.958097 8.09091C0.958097 6.58404 1.24148 5.30208 1.80824 4.24503C2.375 3.18797 3.14418 2.38281 4.11577 1.82955C5.08736 1.27178 6.1804 0.992897 7.39489 0.992897C8.19555 0.992897 8.93774 1.10535 9.62145 1.33026C10.3097 1.55516 10.9192 1.88352 11.4499 2.31534C11.9807 2.74266 12.4125 3.26669 12.7454 3.88743C13.0827 4.50817 13.2987 5.21887 13.3931 6.01953ZM15.4881 15V1.18182H18.4096V6.88317H24.3404V1.18182H27.2551V15H24.3404V9.2919H18.4096V15H15.4881ZM32.0456 15H28.915L33.6852 1.18182H37.4501L42.2136 15H39.0829L35.6216 4.33949H35.5137L32.0456 15ZM31.85 9.56854H39.2449V11.8491H31.85V9.56854ZM43.8768 1.18182H47.4798L51.2852 10.4659H51.4471L55.2525 1.18182H58.8555V15H56.0217V6.00604H55.907L52.331 14.9325H50.4013L46.8253 5.9723H46.7106V15H43.8768V1.18182ZM61.2625 15V1.18182H66.7142C67.7623 1.18182 68.6552 1.38198 69.3928 1.78232C70.1305 2.17815 70.6928 2.72917 71.0796 3.43537C71.471 4.13707 71.6666 4.94673 71.6666 5.86435C71.6666 6.78196 71.4687 7.59162 71.0729 8.29332C70.6771 8.99503 70.1035 9.54155 69.3524 9.93288C68.6057 10.3242 67.7016 10.5199 66.64 10.5199H63.1652V8.17862H66.1677C66.73 8.17862 67.1933 8.08191 67.5576 7.88849C67.9265 7.69058 68.2008 7.41844 68.3808 7.07209C68.5652 6.72124 68.6574 6.31865 68.6574 5.86435C68.6574 5.40554 68.5652 5.00521 68.3808 4.66335C68.2008 4.317 67.9265 4.04936 67.5576 3.86044C67.1888 3.66702 66.721 3.57031 66.1542 3.57031H64.184V15H61.2625ZM81.0604 5.15589C81.0064 4.61162 80.7747 4.1888 80.3654 3.88743C79.9561 3.58606 79.4006 3.43537 78.6989 3.43537C78.2221 3.43537 77.8195 3.50284 77.4911 3.63778C77.1628 3.76823 76.9109 3.9504 76.7354 4.1843C76.5645 4.41821 76.479 4.68359 76.479 4.98047C76.4701 5.22786 76.5218 5.44377 76.6342 5.6282C76.7512 5.81262 76.9109 5.9723 77.1133 6.10724C77.3157 6.23769 77.5496 6.35239 77.815 6.45135C78.0804 6.54581 78.3638 6.62678 78.6651 6.69425L79.9066 6.99112C80.5094 7.12606 81.0626 7.30599 81.5664 7.53089C82.0702 7.7558 82.5065 8.03243 82.8754 8.36079C83.2442 8.68916 83.5298 9.07599 83.7322 9.52131C83.9392 9.96662 84.0449 10.4772 84.0494 11.0529C84.0449 11.8986 83.829 12.6317 83.4016 13.2525C82.9788 13.8687 82.3671 14.3478 81.5664 14.6896C80.7702 15.027 79.8099 15.1957 78.6854 15.1957C77.5698 15.1957 76.5982 15.0247 75.7706 14.6829C74.9474 14.341 74.3042 13.835 73.8409 13.1648C73.3821 12.4901 73.1415 11.6557 73.119 10.6616H75.946C75.9775 11.1249 76.1102 11.5117 76.3441 11.8221C76.5825 12.128 76.8996 12.3596 77.2955 12.517C77.6958 12.67 78.1478 12.7464 78.6516 12.7464C79.1464 12.7464 79.576 12.6745 79.9403 12.5305C80.3092 12.3866 80.5948 12.1864 80.7972 11.93C80.9996 11.6737 81.1009 11.379 81.1009 11.0462C81.1009 10.7358 81.0086 10.4749 80.8242 10.2635C80.6443 10.0521 80.3789 9.87216 80.0281 9.72372C79.6817 9.57528 79.2566 9.44034 78.7528 9.31889L77.2482 8.94105C76.0832 8.65767 75.1634 8.21461 74.4886 7.61186C73.8139 7.00911 73.4788 6.19721 73.4833 5.17614C73.4788 4.33949 73.7015 3.60855 74.1513 2.98331C74.6056 2.35807 75.2286 1.87003 76.0202 1.51918C76.8119 1.16832 77.7115 0.992897 78.7191 0.992897C79.7447 0.992897 80.6398 1.16832 81.4045 1.51918C82.1737 1.87003 82.7719 2.35807 83.1992 2.98331C83.6265 3.60855 83.8469 4.33274 83.8604 5.15589H81.0604Z" fill="black"/>
</svg>
