<svg width="116" height="112" viewBox="0 0 116 112" fill="none" xmlns="http://www.w3.org/2000/svg">
<g filter="url(#filter0_d_403_298)">
<mask id="mask0_403_298" style="mask-type:alpha" maskUnits="userSpaceOnUse" x="22" y="8" width="72" height="88">
<path fill-rule="evenodd" clip-rule="evenodd" d="M71.0082 12.4175C68.5431 10.0435 65.2194 8.67719 61.7328 8.6693C60.5533 8.66666 59.3108 8.66666 58 8.66666C45.3988 8.66666 39.0982 8.66666 34.2852 11.0282C30.0516 13.1054 26.6095 16.42 24.4524 20.4969C22 25.1316 22 31.1989 22 43.3333V60.6667C22 72.8013 22 78.8684 24.4524 83.5033C26.6095 87.5801 30.0516 90.8947 34.2852 92.9717C39.0982 95.3333 45.3988 95.3333 58 95.3333C70.6013 95.3333 76.9018 95.3333 81.7145 92.9717C85.9486 90.8947 89.3906 87.5801 91.5475 83.5033C94 78.8684 94 72.8013 94 60.6667V43.3333C94 42.0712 94 40.8748 93.9973 39.7387C93.9892 36.3813 92.5703 33.1808 90.1048 30.8068L71.0082 12.4175Z" fill="white"/>
</mask>
<g mask="url(#mask0_403_298)">
<path d="M34.2852 11.0282L37.3496 16.8197L34.2852 11.0282ZM24.4524 20.4969L30.4667 23.4478L24.4524 20.4969ZM24.4524 83.5033L18.4381 86.4539L24.4524 83.5033ZM34.2852 92.9717L37.3496 87.1802L34.2852 92.9717ZM81.7145 92.9717L78.6505 87.1802L81.7145 92.9717ZM91.5475 83.5033L85.5332 80.5523L91.5475 83.5033ZM90.1048 30.8068L85.3321 35.403L90.1048 30.8068ZM58 15.1667C59.3122 15.1667 60.5465 15.1667 61.717 15.1693L61.7485 2.16933C60.5596 2.16666 59.309 2.16666 58 2.16666V15.1667ZM37.3496 16.8197C38.646 16.1837 40.4372 15.7026 43.7717 15.4403C47.185 15.1717 51.5879 15.1667 58 15.1667V2.16666C51.8107 2.16666 46.7629 2.1616 42.6724 2.48344C38.503 2.81147 34.7374 3.51118 31.2208 5.23665L37.3496 16.8197ZM30.4667 23.4478C31.9766 20.594 34.3861 18.2738 37.3496 16.8197L31.2208 5.23665C25.717 7.93706 21.2423 12.246 18.4381 17.5459L30.4667 23.4478ZM28.75 43.3333C28.75 37.1588 28.7553 32.9189 29.0341 29.632C29.3066 26.421 29.8061 24.6961 30.4667 23.4478L18.4381 17.5459C16.6462 20.9323 15.9196 24.5585 15.5789 28.5734C15.2447 32.5124 15.25 37.3733 15.25 43.3333H28.75ZM28.75 60.6667V43.3333H15.25V60.6667H28.75ZM30.4667 80.5523C29.8061 79.3039 29.3066 77.5788 29.0341 74.3678C28.7553 71.081 28.75 66.8412 28.75 60.6667H15.25C15.25 66.6267 15.2447 71.4874 15.5789 75.4264C15.9196 79.4417 16.6462 83.0678 18.4381 86.4539L30.4667 80.5523ZM37.3496 87.1802C34.3861 85.7263 31.9766 83.4058 30.4667 80.5523L18.4381 86.4539C21.2423 91.754 25.717 96.0631 31.2208 98.7632L37.3496 87.1802ZM58 88.8333C51.5879 88.8333 47.185 88.8281 43.7717 88.5599C40.4372 88.2973 38.646 87.8163 37.3496 87.1802L31.2208 98.7632C34.7374 100.489 38.503 101.189 42.6724 101.517C46.7629 101.839 51.8107 101.833 58 101.833V88.8333ZM78.6505 87.1802C77.354 87.8163 75.5626 88.2973 72.2281 88.5599C68.8148 88.8281 64.412 88.8333 58 88.8333V101.833C64.1893 101.833 69.2369 101.839 73.3274 101.517C77.4971 101.189 81.2627 100.489 84.779 98.7632L78.6505 87.1802ZM85.5332 80.5523C84.0235 83.4058 81.6137 85.7263 78.6505 87.1802L84.779 98.7632C90.283 96.0631 94.7578 91.754 97.5618 86.4539L85.5332 80.5523ZM87.25 60.6667C87.25 66.8412 87.2446 71.081 86.966 74.3678C86.6933 77.5788 86.1938 79.3039 85.5332 80.5523L97.5618 86.4539C99.3537 83.0678 100.08 79.4417 100.421 75.4264C100.755 71.4874 100.75 66.6267 100.75 60.6667H87.25ZM87.25 43.3333V60.6667H100.75V43.3333H87.25ZM87.2473 39.7539C87.25 40.881 87.25 42.0696 87.25 43.3333H100.75C100.75 42.0729 100.75 40.8686 100.747 39.7235L87.2473 39.7539ZM94.878 26.2106L75.7813 7.82131L66.2354 17.0137L85.3321 35.403L94.878 26.2106ZM100.747 39.7235C100.735 34.6001 98.5698 29.766 94.878 26.2106L85.3321 35.403C86.5705 36.5957 87.2432 38.1626 87.2473 39.7539L100.747 39.7235ZM61.717 15.1693C63.3698 15.173 64.9966 15.821 66.2354 17.0137L75.7813 7.82131C72.089 4.26597 67.0693 2.18132 61.7485 2.16933L61.717 15.1693Z" fill="white"/>
<path d="M64.75 10.8333V23.8333C64.75 31.013 70.7939 36.8333 78.25 36.8333H89.5" stroke="white" stroke-width="1.5"/>
</g>
</g>
<path d="M49.79 48.06C48.93 48.06 48.16 48.23 47.48 48.57C46.82 48.91 46.26 49.4 45.8 50.04C45.34 50.66 44.99 51.42 44.75 52.32C44.53 53.22 44.42 54.23 44.42 55.35C44.42 56.87 44.6 58.17 44.96 59.25C45.34 60.31 45.93 61.12 46.73 61.68C47.53 62.24 48.55 62.52 49.79 62.52C50.67 62.52 51.54 62.42 52.4 62.22C53.28 62.02 54.23 61.74 55.25 61.38V65.19C54.31 65.57 53.38 65.85 52.46 66.03C51.54 66.21 50.51 66.3 49.37 66.3C47.17 66.3 45.35 65.85 43.91 64.95C42.49 64.03 41.44 62.75 40.76 61.11C40.08 59.45 39.74 57.52 39.74 55.32C39.74 53.7 39.96 52.22 40.4 50.88C40.84 49.52 41.48 48.35 42.32 47.37C43.18 46.39 44.23 45.63 45.47 45.09C46.73 44.55 48.17 44.28 49.79 44.28C50.85 44.28 51.91 44.42 52.97 44.7C54.05 44.96 55.08 45.32 56.06 45.78L54.59 49.47C53.79 49.09 52.98 48.76 52.16 48.48C51.36 48.2 50.57 48.06 49.79 48.06ZM76.6016 44.58L69.3116 66H64.3616L57.1016 44.58H61.6916L65.7116 57.33C65.7916 57.55 65.9016 57.96 66.0416 58.56C66.2016 59.14 66.3616 59.76 66.5216 60.42C66.6816 61.06 66.7916 61.6 66.8516 62.04C66.9116 61.6 67.0116 61.06 67.1516 60.42C67.3116 59.76 67.4716 59.14 67.6316 58.56C67.7916 57.96 67.9016 57.55 67.9616 57.33L72.0116 44.58H76.6016Z" fill="white"/>
<defs>
<filter id="filter0_d_403_298" x="0" y="0" width="116" height="112" filterUnits="userSpaceOnUse" color-interpolation-filters="sRGB">
<feFlood flood-opacity="0" result="BackgroundImageFix"/>
<feColorMatrix in="SourceAlpha" type="matrix" values="0 0 0 0 0 0 0 0 0 0 0 0 0 0 0 0 0 0 127 0" result="hardAlpha"/>
<feOffset dy="4"/>
<feGaussianBlur stdDeviation="2"/>
<feComposite in2="hardAlpha" operator="out"/>
<feColorMatrix type="matrix" values="0 0 0 0 0 0 0 0 0 0 0 0 0 0 0 0 0 0 0.25 0"/>
<feBlend mode="normal" in2="BackgroundImageFix" result="effect1_dropShadow_403_298"/>
<feBlend mode="normal" in="SourceGraphic" in2="effect1_dropShadow_403_298" result="shape"/>
</filter>
</defs>
</svg>
