<svg width="79" height="81" viewBox="0 0 79 81" fill="none" xmlns="http://www.w3.org/2000/svg">
<g filter="url(#filter0_d_403_297)">
<mask id="mask0_403_297" style="mask-type:alpha" maskUnits="userSpaceOnUse" x="15" y="6" width="49" height="61">
<path fill-rule="evenodd" clip-rule="evenodd" d="M48.0517 8.71618C46.4311 7.04977 44.2461 6.09074 41.9539 6.0852C41.1786 6.08334 40.3618 6.08334 39.5 6.08334C31.2159 6.08334 27.0738 6.08334 23.9097 7.74096C21.1265 9.19901 18.8636 11.5256 17.4455 14.3872C15.8333 17.6405 15.8333 21.8992 15.8333 30.4167V42.5833C15.8333 51.1009 15.8333 55.3596 17.4455 58.6129C18.8636 61.4745 21.1265 63.8011 23.9097 65.259C27.0738 66.9167 31.2159 66.9167 39.5 66.9167C47.7842 66.9167 51.9262 66.9167 55.0901 65.259C57.8736 63.8011 60.1364 61.4745 61.5544 58.6129C63.1667 55.3596 63.1667 51.1009 63.1667 42.5833V30.4167C63.1667 29.5308 63.1667 28.691 63.1649 27.8936C63.1596 25.5369 62.2268 23.2904 60.6059 21.624L48.0517 8.71618Z" fill="white"/>
</mask>
<g mask="url(#mask0_403_297)">
<path d="M23.9097 7.74096L25.9243 11.8062L23.9097 7.74096ZM17.4455 14.3872L21.3994 16.4586L17.4455 14.3872ZM17.4455 58.6129L13.4917 60.684L17.4455 58.6129ZM23.9097 65.259L25.9243 61.1938L23.9097 65.259ZM55.0901 65.259L53.0758 61.1938L55.0901 65.259ZM61.5544 58.6129L57.6006 56.5416L61.5544 58.6129ZM60.6059 21.624L57.4683 24.8502L60.6059 21.624ZM39.5 10.6458C40.3626 10.6458 41.1741 10.6458 41.9436 10.6477L41.9643 1.52272C41.1827 1.52084 40.3606 1.52085 39.5 1.52085V10.6458ZM25.9243 11.8062C26.7765 11.3597 27.9541 11.022 30.1462 10.8379C32.3901 10.6494 35.2847 10.6458 39.5 10.6458V1.52085C35.4311 1.52085 32.1127 1.5173 29.4235 1.7432C26.6825 1.97345 24.207 2.46459 21.8951 3.67575L25.9243 11.8062ZM21.3994 16.4586C22.392 14.4554 23.9761 12.8268 25.9243 11.8062L21.8951 3.67575C18.2769 5.57122 15.3352 8.59579 13.4917 12.3159L21.3994 16.4586ZM20.2708 30.4167C20.2708 26.0827 20.2743 23.1066 20.4576 20.7994C20.6367 18.5455 20.9651 17.3348 21.3994 16.4586L13.4917 12.3159C12.3137 14.6929 11.836 17.2382 11.6121 20.0563C11.3924 22.8212 11.3958 26.2332 11.3958 30.4167H20.2708ZM20.2708 42.5833V30.4167H11.3958V42.5833H20.2708ZM21.3994 56.5416C20.9651 55.6653 20.6367 54.4544 20.4576 52.2005C20.2743 49.8934 20.2708 46.9174 20.2708 42.5833H11.3958C11.3958 46.7669 11.3924 50.1787 11.6121 52.9436C11.836 55.762 12.3137 58.3072 13.4917 60.684L21.3994 56.5416ZM25.9243 61.1938C23.9761 60.1733 22.392 58.5445 21.3994 56.5416L13.4917 60.684C15.3352 64.4043 18.2769 67.4289 21.8951 69.3242L25.9243 61.1938ZM39.5 62.3542C35.2847 62.3542 32.3901 62.3505 30.1462 62.1623C27.9541 61.9779 26.7765 61.6403 25.9243 61.1938L21.8951 69.3242C24.207 70.5354 26.6825 71.0266 29.4235 71.2568C32.1127 71.4828 35.4311 71.4792 39.5 71.4792V62.3542ZM53.0758 61.1938C52.2235 61.6403 51.0458 61.9779 48.8537 62.1623C46.6098 62.3505 43.7153 62.3542 39.5 62.3542V71.4792C43.5689 71.4792 46.8873 71.4828 49.5764 71.2568C52.3176 71.0266 54.7931 70.5354 57.1047 69.3242L53.0758 61.1938ZM57.6006 56.5416C56.608 58.5445 55.0239 60.1733 53.0758 61.1938L57.1047 69.3242C60.7231 67.4289 63.6648 64.4043 65.5082 60.684L57.6006 56.5416ZM58.7292 42.5833C58.7292 46.9174 58.7256 49.8934 58.5425 52.2005C58.3632 54.4544 58.0348 55.6653 57.6006 56.5416L65.5082 60.684C66.6862 58.3072 67.164 55.762 67.3879 52.9436C67.6077 50.1787 67.6042 46.7669 67.6042 42.5833H58.7292ZM58.7292 30.4167V42.5833H67.6042V30.4167H58.7292ZM58.7274 27.9042C58.7292 28.6953 58.7292 29.5296 58.7292 30.4167H67.6042C67.6042 29.532 67.6042 28.6866 67.6024 27.8829L58.7274 27.9042ZM63.7438 18.3978L51.1896 5.48998L44.914 11.9424L57.4683 24.8502L63.7438 18.3978ZM67.6024 27.8829C67.5941 24.2866 66.1709 20.8935 63.7438 18.3978L57.4683 24.8502C58.2825 25.6874 58.7247 26.7872 58.7274 27.9042L67.6024 27.8829ZM41.9436 10.6477C43.0302 10.6503 44.0996 11.1052 44.914 11.9424L51.1896 5.48998C48.7622 2.9944 45.4622 1.53114 41.9643 1.52272L41.9436 10.6477Z" fill="white"/>
<path d="M43.9375 7.60416V16.7292C43.9375 21.7687 47.9108 25.8542 52.8125 25.8542H60.2083" stroke="white" stroke-width="1.5"/>
</g>
</g>
<path d="M35.502 36.628C35.1007 36.628 34.7413 36.7073 34.424 36.866C34.116 37.0247 33.8547 37.2533 33.64 37.552C33.4253 37.8413 33.262 38.196 33.15 38.616C33.0473 39.036 32.996 39.5073 32.996 40.03C32.996 40.7393 33.08 41.346 33.248 41.85C33.4253 42.3447 33.7007 42.7227 34.074 42.984C34.4473 43.2453 34.9233 43.376 35.502 43.376C35.9127 43.376 36.3187 43.3293 36.72 43.236C37.1307 43.1427 37.574 43.012 38.05 42.844V44.622C37.6113 44.7993 37.1773 44.93 36.748 45.014C36.3187 45.098 35.838 45.14 35.306 45.14C34.2793 45.14 33.43 44.93 32.758 44.51C32.0953 44.0807 31.6053 43.4833 31.288 42.718C30.9707 41.9433 30.812 41.0427 30.812 40.016C30.812 39.26 30.9147 38.5693 31.12 37.944C31.3253 37.3093 31.624 36.7633 32.016 36.306C32.4173 35.8487 32.9073 35.494 33.486 35.242C34.074 34.99 34.746 34.864 35.502 34.864C35.9967 34.864 36.4913 34.9293 36.986 35.06C37.49 35.1813 37.9707 35.3493 38.428 35.564L37.742 37.286C37.3687 37.1087 36.9907 36.9547 36.608 36.824C36.2347 36.6933 35.866 36.628 35.502 36.628ZM48.0141 35.004L44.6121 45H42.3021L38.9141 35.004H41.0561L42.9321 40.954C42.9694 41.0567 43.0207 41.248 43.0861 41.528C43.1607 41.7987 43.2354 42.088 43.3101 42.396C43.3847 42.6947 43.4361 42.9467 43.4641 43.152C43.4921 42.9467 43.5387 42.6947 43.6041 42.396C43.6787 42.088 43.7534 41.7987 43.8281 41.528C43.9027 41.248 43.9541 41.0567 43.9821 40.954L45.8721 35.004H48.0141Z" fill="white"/>
<defs>
<filter id="filter0_d_403_297" x="0" y="0" width="79" height="81" filterUnits="userSpaceOnUse" color-interpolation-filters="sRGB">
<feFlood flood-opacity="0" result="BackgroundImageFix"/>
<feColorMatrix in="SourceAlpha" type="matrix" values="0 0 0 0 0 0 0 0 0 0 0 0 0 0 0 0 0 0 127 0" result="hardAlpha"/>
<feOffset dy="4"/>
<feGaussianBlur stdDeviation="2"/>
<feComposite in2="hardAlpha" operator="out"/>
<feColorMatrix type="matrix" values="0 0 0 0 0 0 0 0 0 0 0 0 0 0 0 0 0 0 0.25 0"/>
<feBlend mode="normal" in2="BackgroundImageFix" result="effect1_dropShadow_403_297"/>
<feBlend mode="normal" in="SourceGraphic" in2="effect1_dropShadow_403_297" result="shape"/>
</filter>
</defs>
</svg>
