<svg width="149" height="149" viewBox="0 0 149 149" fill="none" xmlns="http://www.w3.org/2000/svg">
<path d="M144 74.5C146.761 74.5 149.017 76.7414 148.832 79.4966C147.693 96.4589 140.777 112.58 129.156 125.125C116.4 138.898 98.914 147.347 80.1964 148.782C61.4788 150.217 42.9092 144.533 28.2018 132.867C13.4944 121.201 3.73343 104.412 0.871098 85.8593C-1.99124 67.3063 2.25612 48.3566 12.7637 32.8002C23.2712 17.2438 39.2643 6.22773 57.5442 1.95519C75.824 -2.31735 95.0431 0.468648 111.357 9.75598C126.219 18.2162 137.671 31.5031 143.87 47.3332C144.877 49.9045 143.401 52.7216 140.768 53.5539L105.402 64.7325C99.9508 66.4555 101.192 74.5 106.909 74.5H144Z" fill="url(#paint0_linear_105_5)"/>
<path d="M127.109 71.3529C129.477 71.6303 131.28 73.639 131.113 76.0174C130.183 89.2595 124.918 103.609 116.12 113.097C106.387 123.593 93.0469 130.023 78.773 131.101C64.499 132.179 50.345 127.823 39.1461 118.907C27.9473 109.992 20.5305 97.1738 18.3815 83.0215C16.2326 68.8691 19.5101 54.4274 27.5576 42.5892C35.6051 30.7509 47.8283 22.3904 61.7787 19.1822C75.7291 15.974 90.3765 18.1551 102.787 25.2886C113.942 31.7004 124.616 41.6862 129.747 53.5671C130.791 55.9846 129.93 58.7413 127.894 60.4111L124.675 63.0501C121.469 65.6794 122.99 70.8704 127.109 71.3529V71.3529Z" fill="#151515"/>
<defs>
<linearGradient id="paint0_linear_105_5" x1="-46.119" y1="74.5" x2="195.119" y2="74.5" gradientUnits="userSpaceOnUse">
<stop stop-color="#FF61DC"/>
<stop offset="1" stop-color="#1400FF" stop-opacity="0.59"/>
</linearGradient>
</defs>
</svg>
