<svg width="125" height="28" viewBox="0 0 125 28" fill="none" xmlns="http://www.w3.org/2000/svg">
<rect width="125" height="25.5049" rx="6" fill="url(#paint0_linear_437_364)"/>
<rect x="3.34821" y="3.32672" width="118.304" height="18.8515" rx="6" fill="black"/>
<path d="M23.3963 11.321L21.7472 11.4233C21.7386 11.2784 21.6989 11.1491 21.6278 11.0355C21.5597 10.919 21.4588 10.8267 21.3253 10.7585C21.1946 10.6903 21.0298 10.6562 20.831 10.6562C20.5327 10.6562 20.267 10.7244 20.0341 10.8608C19.8011 10.9972 19.669 11.1719 19.6378 11.3849C19.6122 11.5213 19.6477 11.6364 19.7443 11.7301C19.8409 11.8239 20.0355 11.9034 20.3281 11.9688L21.4787 12.2074C22.0923 12.3381 22.5355 12.5554 22.8082 12.8594C23.0838 13.1634 23.1818 13.5611 23.1023 14.0526C23.0313 14.4702 22.848 14.8352 22.5526 15.1477C22.2571 15.4574 21.8821 15.6989 21.4276 15.8722C20.973 16.0426 20.4688 16.1278 19.9148 16.1278C19.0256 16.1278 18.3494 15.946 17.8864 15.5824C17.4233 15.2187 17.2003 14.7259 17.2173 14.1037L18.9901 14.0099C19.0043 14.277 19.098 14.4787 19.2713 14.6151C19.4446 14.7486 19.6818 14.8168 19.983 14.8196C20.321 14.8253 20.608 14.7557 20.8438 14.6108C21.0824 14.4631 21.2173 14.2841 21.2486 14.0739C21.2713 13.9261 21.2287 13.8068 21.1207 13.7159C21.0156 13.625 20.8224 13.5497 20.5412 13.4901L19.4503 13.2642C18.831 13.1364 18.3864 12.9077 18.1165 12.5781C17.8466 12.2486 17.7543 11.8295 17.8395 11.321C17.9077 10.9148 18.0767 10.5668 18.3466 10.277C18.6193 9.98438 18.9702 9.75994 19.3991 9.60369C19.831 9.44744 20.3182 9.36932 20.8608 9.36932C21.7102 9.36932 22.3494 9.54403 22.7784 9.89347C23.2102 10.2429 23.4162 10.7187 23.3963 11.321ZM28.4897 9.45455L28.2638 10.8182H24.3178L24.5479 9.45455H28.4897ZM25.6985 7.88636H27.5138L26.4996 13.9886C26.4712 14.1562 26.4755 14.2869 26.5124 14.3807C26.5494 14.4716 26.6104 14.5355 26.6957 14.5724C26.7837 14.6094 26.8888 14.6278 27.011 14.6278C27.0962 14.6278 27.1829 14.6207 27.271 14.6065C27.359 14.5895 27.4258 14.5767 27.4712 14.5682L27.5394 15.919C27.4371 15.9503 27.2994 15.9844 27.1261 16.0213C26.9556 16.0582 26.7539 16.081 26.521 16.0895C26.0778 16.1065 25.7028 16.0483 25.396 15.9148C25.0891 15.7784 24.869 15.5696 24.7354 15.2884C24.6019 15.0071 24.5735 14.6534 24.6502 14.2273L25.6985 7.88636ZM30.4308 16.1236C30.016 16.1236 29.6566 16.0511 29.3526 15.9062C29.0515 15.7585 28.8299 15.5398 28.6879 15.25C28.5458 14.9602 28.5103 14.6009 28.5813 14.1719C28.6438 13.8082 28.7617 13.5043 28.935 13.2599C29.1112 13.0128 29.3256 12.8139 29.5785 12.6634C29.8313 12.5128 30.1112 12.3977 30.418 12.3182C30.7276 12.2386 31.0472 12.1847 31.3768 12.1562C31.7575 12.1165 32.0671 12.0781 32.3058 12.0412C32.5472 12.0043 32.7276 11.9517 32.8469 11.8835C32.9663 11.8125 33.0387 11.7074 33.0643 11.5682V11.5426C33.1069 11.2756 33.0572 11.0682 32.9151 10.9205C32.7759 10.7699 32.5529 10.6946 32.2461 10.6946C31.9222 10.6946 31.6467 10.7656 31.4194 10.9077C31.195 11.0497 31.0344 11.2301 30.9379 11.4489L29.2844 11.3125C29.4322 10.9148 29.6552 10.571 29.9535 10.2812C30.2546 9.98864 30.6168 9.7642 31.0401 9.60795C31.4634 9.44886 31.9379 9.36932 32.4634 9.36932C32.8271 9.36932 33.1665 9.41193 33.4819 9.49716C33.8001 9.58239 34.0742 9.71449 34.3043 9.89347C34.5373 10.0724 34.7049 10.3026 34.8072 10.5838C34.9123 10.8622 34.9336 11.196 34.8711 11.5852L34.1339 16H32.4123L32.5657 15.0923H32.5146C32.3754 15.2969 32.2049 15.4773 32.0032 15.6335C31.8015 15.7869 31.57 15.9077 31.3086 15.9957C31.0472 16.081 30.7546 16.1236 30.4308 16.1236ZM31.1594 14.8707C31.4237 14.8707 31.6665 14.8182 31.8881 14.7131C32.1126 14.6051 32.2972 14.4602 32.4421 14.2784C32.5898 14.0966 32.6836 13.8906 32.7234 13.6605L32.8342 12.9659C32.7773 13.0028 32.695 13.0355 32.587 13.0639C32.4819 13.0923 32.3668 13.1193 32.2418 13.1449C32.1197 13.1676 31.9961 13.1889 31.8711 13.2088C31.7461 13.2259 31.6339 13.2429 31.5344 13.2599C31.3157 13.2912 31.1197 13.3409 30.9464 13.4091C30.7731 13.4773 30.6325 13.5696 30.5245 13.6861C30.4165 13.7997 30.3498 13.9418 30.3242 14.1122C30.2844 14.3594 30.3427 14.5483 30.4989 14.679C30.658 14.8068 30.8782 14.8707 31.1594 14.8707ZM35.5423 16L36.6332 9.45455H38.3931L38.2013 10.5966H38.2695C38.457 10.1903 38.7085 9.88352 39.0238 9.67614C39.342 9.46591 39.6843 9.3608 40.0508 9.3608C40.1417 9.3608 40.2369 9.36648 40.3363 9.37784C40.4386 9.38636 40.5295 9.40057 40.609 9.42045L40.3363 11.0355C40.2567 11.0071 40.1431 10.9844 39.9954 10.9673C39.8505 10.9474 39.7127 10.9375 39.582 10.9375C39.3178 10.9375 39.0721 10.9957 38.8448 11.1122C38.6175 11.2259 38.4258 11.3849 38.2695 11.5895C38.1161 11.794 38.0153 12.0298 37.967 12.2969L37.3576 16H35.5423ZM45.353 9.45455L45.1271 10.8182H41.1811L41.4112 9.45455H45.353ZM42.5618 7.88636H44.3771L43.3629 13.9886C43.3345 14.1562 43.3388 14.2869 43.3757 14.3807C43.4126 14.4716 43.4737 14.5355 43.5589 14.5724C43.647 14.6094 43.7521 14.6278 43.8743 14.6278C43.9595 14.6278 44.0462 14.6207 44.1342 14.6065C44.2223 14.5895 44.2891 14.5767 44.3345 14.5682L44.4027 15.919C44.3004 15.9503 44.1626 15.9844 43.9893 16.0213C43.8189 16.0582 43.6172 16.081 43.3842 16.0895C42.9411 16.1065 42.5661 16.0483 42.2592 15.9148C41.9524 15.7784 41.7322 15.5696 41.5987 15.2884C41.4652 15.0071 41.4368 14.6534 41.5135 14.2273L42.5618 7.88636ZM45.4446 16L46.5355 9.45455H48.3509L47.2599 16H45.4446ZM47.6307 8.60227C47.3608 8.60227 47.1378 8.51278 46.9616 8.33381C46.7884 8.15199 46.7173 7.93608 46.7486 7.68608C46.7798 7.4304 46.902 7.21449 47.1151 7.03835C47.3281 6.85937 47.5696 6.76989 47.8395 6.76989C48.1094 6.76989 48.3295 6.85937 48.5 7.03835C48.6705 7.21449 48.7415 7.4304 48.7131 7.68608C48.6847 7.93608 48.5639 8.15199 48.3509 8.33381C48.1406 8.51278 47.9006 8.60227 47.6307 8.60227ZM51.1687 12.2159L50.538 16H48.7269L49.8178 9.45455H51.5437L51.3562 10.6094H51.4286C51.636 10.2259 51.9286 9.9233 52.3065 9.7017C52.6871 9.48011 53.1204 9.36932 53.6062 9.36932C54.0607 9.36932 54.44 9.46875 54.744 9.66761C55.0508 9.86648 55.2667 10.1491 55.3917 10.5156C55.5195 10.8821 55.5408 11.321 55.4556 11.8324L54.7567 16H52.9414L53.5849 12.1562C53.6502 11.7557 53.5991 11.4432 53.4315 11.2188C53.2667 10.9915 53.0011 10.8778 52.6346 10.8778C52.3903 10.8778 52.1658 10.9304 51.9613 11.0355C51.7567 11.1406 51.5849 11.294 51.4457 11.4957C51.3093 11.6946 51.217 11.9347 51.1687 12.2159ZM58.7188 18.5909C58.1278 18.5909 57.6349 18.5099 57.2401 18.348C56.848 18.1889 56.5497 17.9716 56.3452 17.696C56.1435 17.4205 56.0327 17.1108 56.0128 16.767L57.7344 16.5412C57.7656 16.6747 57.8253 16.7983 57.9134 16.9119C58.0043 17.0256 58.1335 17.1165 58.3011 17.1847C58.4716 17.2528 58.6918 17.2869 58.9616 17.2869C59.3565 17.2869 59.7003 17.1903 59.9929 16.9972C60.2855 16.8068 60.4659 16.4872 60.5341 16.0384L60.7301 14.8409H60.6534C60.5455 15.0227 60.3977 15.1946 60.2102 15.3565C60.0256 15.5185 59.7997 15.6506 59.5327 15.7528C59.2685 15.8551 58.9631 15.9062 58.6165 15.9062C58.1222 15.9062 57.6932 15.7926 57.3295 15.5653C56.9688 15.3352 56.7074 14.9844 56.5455 14.5128C56.3864 14.0384 56.3665 13.4389 56.4858 12.7145C56.6108 11.973 56.8352 11.3537 57.1591 10.8565C57.483 10.3594 57.8665 9.98722 58.3097 9.74006C58.7528 9.4929 59.2145 9.36932 59.6946 9.36932C60.0611 9.36932 60.3565 9.43182 60.581 9.55682C60.8082 9.67898 60.983 9.83239 61.1051 10.017C61.2273 10.1989 61.3139 10.3778 61.3651 10.554H61.4375L61.6165 9.45455H63.419L62.3196 16.0639C62.2315 16.6236 62.0199 17.0895 61.6847 17.4616C61.3523 17.8366 60.9304 18.1179 60.419 18.3054C59.9077 18.4957 59.3409 18.5909 58.7188 18.5909ZM59.4006 14.5426C59.6903 14.5426 59.9503 14.4702 60.1804 14.3253C60.4134 14.1776 60.608 13.9673 60.7642 13.6946C60.9205 13.419 61.0298 13.0895 61.0923 12.706C61.1548 12.3224 61.1534 11.9901 61.0881 11.7088C61.0256 11.4247 60.9034 11.2045 60.7216 11.0483C60.5426 10.892 60.3068 10.8139 60.0142 10.8139C59.7131 10.8139 59.4489 10.8949 59.2216 11.0568C58.9943 11.2159 58.8054 11.4375 58.6548 11.7216C58.5071 12.0057 58.4034 12.3338 58.3438 12.706C58.2812 13.0838 58.2784 13.4105 58.3352 13.6861C58.3949 13.9588 58.5128 14.1705 58.6889 14.321C58.8651 14.4687 59.1023 14.5426 59.4006 14.5426ZM72.7674 11.321L71.1183 11.4233C71.1097 11.2784 71.07 11.1491 70.9989 11.0355C70.9308 10.919 70.8299 10.8267 70.6964 10.7585C70.5657 10.6903 70.4009 10.6562 70.2021 10.6562C69.9038 10.6562 69.6381 10.7244 69.4052 10.8608C69.1722 10.9972 69.0401 11.1719 69.0089 11.3849C68.9833 11.5213 69.0188 11.6364 69.1154 11.7301C69.212 11.8239 69.4066 11.9034 69.6992 11.9688L70.8498 12.2074C71.4634 12.3381 71.9066 12.5554 72.1793 12.8594C72.4549 13.1634 72.5529 13.5611 72.4734 14.0526C72.4023 14.4702 72.2191 14.8352 71.9237 15.1477C71.6282 15.4574 71.2532 15.6989 70.7987 15.8722C70.3441 16.0426 69.8398 16.1278 69.2859 16.1278C68.3967 16.1278 67.7205 15.946 67.2575 15.5824C66.7944 15.2187 66.5714 14.7259 66.5884 14.1037L68.3612 14.0099C68.3754 14.277 68.4691 14.4787 68.6424 14.6151C68.8157 14.7486 69.0529 14.8168 69.354 14.8196C69.6921 14.8253 69.979 14.7557 70.2148 14.6108C70.4535 14.4631 70.5884 14.2841 70.6197 14.0739C70.6424 13.9261 70.5998 13.8068 70.4918 13.7159C70.3867 13.625 70.1935 13.5497 69.9123 13.4901L68.8214 13.2642C68.2021 13.1364 67.7575 12.9077 67.4876 12.5781C67.2177 12.2486 67.1254 11.8295 67.2106 11.321C67.2788 10.9148 67.4478 10.5668 67.7177 10.277C67.9904 9.98438 68.3413 9.75994 68.7702 9.60369C69.2021 9.44744 69.6893 9.36932 70.2319 9.36932C71.0813 9.36932 71.7205 9.54403 72.1495 9.89347C72.5813 10.2429 72.7873 10.7187 72.7674 11.321ZM76.2543 16.1278C75.5866 16.1278 75.0341 15.9858 74.5966 15.7017C74.1591 15.4148 73.8509 15.017 73.6719 14.5085C73.4957 13.9972 73.4631 13.402 73.5739 12.723C73.6818 12.0526 73.9063 11.4659 74.2472 10.9631C74.5881 10.4602 75.0213 10.0696 75.5469 9.79119C76.0724 9.50994 76.6648 9.36932 77.3239 9.36932C77.9886 9.36932 78.5398 9.51278 78.9773 9.79972C79.4148 10.0838 79.723 10.4815 79.902 10.9929C80.081 11.5043 80.1151 12.0994 80.0043 12.7784C79.8935 13.446 79.6662 14.0312 79.3224 14.5341C78.9787 15.0369 78.5455 15.429 78.0227 15.7102C77.5 15.9886 76.9105 16.1278 76.2543 16.1278ZM76.4332 14.7216C76.7401 14.7216 77.0114 14.6349 77.2472 14.4616C77.4858 14.2855 77.6832 14.0469 77.8395 13.7457C77.9986 13.4418 78.1094 13.098 78.1719 12.7145C78.2344 12.3366 78.2386 12.0014 78.1847 11.7088C78.1307 11.4134 78.017 11.1804 77.8438 11.0099C77.6733 10.8395 77.4389 10.7543 77.1406 10.7543C76.8338 10.7543 76.5611 10.8423 76.3224 11.0185C76.0838 11.1918 75.8864 11.4304 75.7301 11.7344C75.5739 12.0384 75.4645 12.3835 75.402 12.7699C75.3423 13.1449 75.3381 13.4801 75.3892 13.7756C75.4403 14.0682 75.5526 14.2997 75.7259 14.4702C75.8991 14.6378 76.1349 14.7216 76.4332 14.7216ZM83.6136 16.1278C82.946 16.1278 82.3935 15.9858 81.956 15.7017C81.5185 15.4148 81.2102 15.017 81.0312 14.5085C80.8551 13.9972 80.8224 13.402 80.9332 12.723C81.0412 12.0526 81.2656 11.4659 81.6065 10.9631C81.9474 10.4602 82.3807 10.0696 82.9062 9.79119C83.4318 9.50994 84.0241 9.36932 84.6832 9.36932C85.348 9.36932 85.8991 9.51278 86.3366 9.79972C86.7741 10.0838 87.0824 10.4815 87.2614 10.9929C87.4403 11.5043 87.4744 12.0994 87.3636 12.7784C87.2528 13.446 87.0256 14.0312 86.6818 14.5341C86.3381 15.0369 85.9048 15.429 85.3821 15.7102C84.8594 15.9886 84.2699 16.1278 83.6136 16.1278ZM83.7926 14.7216C84.0994 14.7216 84.3707 14.6349 84.6065 14.4616C84.8452 14.2855 85.0426 14.0469 85.1989 13.7457C85.358 13.4418 85.4688 13.098 85.5312 12.7145C85.5938 12.3366 85.598 12.0014 85.544 11.7088C85.4901 11.4134 85.3764 11.1804 85.2031 11.0099C85.0327 10.8395 84.7983 10.7543 84.5 10.7543C84.1932 10.7543 83.9205 10.8423 83.6818 11.0185C83.4432 11.1918 83.2457 11.4304 83.0895 11.7344C82.9332 12.0384 82.8239 12.3835 82.7614 12.7699C82.7017 13.1449 82.6974 13.4801 82.7486 13.7756C82.7997 14.0682 82.9119 14.2997 83.0852 14.4702C83.2585 14.6378 83.4943 14.7216 83.7926 14.7216ZM90.4616 12.2159L89.831 16H88.0199L89.1108 9.45455H90.8366L90.6491 10.6094H90.7216C90.929 10.2259 91.2216 9.9233 91.5994 9.7017C91.9801 9.48011 92.4134 9.36932 92.8991 9.36932C93.3537 9.36932 93.733 9.46875 94.0369 9.66761C94.3438 9.86648 94.5597 10.1491 94.6847 10.5156C94.8125 10.8821 94.8338 11.321 94.7486 11.8324L94.0497 16H92.2344L92.8778 12.1562C92.9432 11.7557 92.892 11.4432 92.7244 11.2188C92.5597 10.9915 92.294 10.8778 91.9276 10.8778C91.6832 10.8778 91.4588 10.9304 91.2543 11.0355C91.0497 11.1406 90.8778 11.294 90.7386 11.4957C90.6023 11.6946 90.5099 11.9347 90.4616 12.2159ZM96.614 16.1108C96.3271 16.1108 96.0913 16.0114 95.9066 15.8125C95.7248 15.6136 95.6424 15.3722 95.6594 15.0881C95.6793 14.8068 95.7972 14.5696 96.0131 14.3764C96.2319 14.1804 96.4833 14.0824 96.7674 14.0824C97.0401 14.0824 97.2702 14.1804 97.4577 14.3764C97.6452 14.5724 97.7276 14.8097 97.7049 15.0881C97.6907 15.2756 97.6296 15.4474 97.5217 15.6037C97.4165 15.7571 97.283 15.8807 97.1211 15.9744C96.9592 16.0653 96.7901 16.1108 96.614 16.1108ZM100.188 16.1108C99.9013 16.1108 99.6655 16.0114 99.4808 15.8125C99.299 15.6136 99.2166 15.3722 99.2337 15.0881C99.2536 14.8068 99.3714 14.5696 99.5874 14.3764C99.8061 14.1804 100.058 14.0824 100.342 14.0824C100.614 14.0824 100.844 14.1804 101.032 14.3764C101.219 14.5724 101.302 14.8097 101.279 15.0881C101.265 15.2756 101.204 15.4474 101.096 15.6037C100.991 15.7571 100.857 15.8807 100.695 15.9744C100.533 16.0653 100.364 16.1108 100.188 16.1108ZM103.762 16.1108C103.475 16.1108 103.24 16.0114 103.055 15.8125C102.873 15.6136 102.791 15.3722 102.808 15.0881C102.828 14.8068 102.946 14.5696 103.162 14.3764C103.38 14.1804 103.632 14.0824 103.916 14.0824C104.189 14.0824 104.419 14.1804 104.606 14.3764C104.794 14.5724 104.876 14.8097 104.853 15.0881C104.839 15.2756 104.778 15.4474 104.67 15.6037C104.565 15.7571 104.431 15.8807 104.27 15.9744C104.108 16.0653 103.939 16.1108 103.762 16.1108Z" fill="white"/>
<defs>
<linearGradient id="paint0_linear_437_364" x1="0" y1="25.505" x2="125" y2="25.505" gradientUnits="userSpaceOnUse">
<stop stop-color="#85B1FF"/>
<stop offset="1" stop-color="#BCABFF"/>
</linearGradient>
</defs>
</svg>
