<svg width="125" height="28" viewBox="0 0 125 28" fill="none" xmlns="http://www.w3.org/2000/svg">
<rect y="0.277222" width="125" height="25.5049" rx="6" fill="url(#paint0_linear_437_365)"/>
<rect x="3.34821" y="3.60394" width="118.304" height="18.8515" rx="6" fill="black"/>
<rect x="3.34821" y="3.60394" width="118.304" height="18.8515" rx="6" fill="url(#paint1_linear_437_365)"/>
<path d="M50.5824 17.1065C50.0824 17.1065 49.652 16.9787 49.2912 16.723C48.9332 16.4645 48.6776 16.0852 48.5241 15.5852C48.3736 15.0824 48.3594 14.4659 48.4815 13.7358C48.6065 12.9858 48.831 12.3622 49.1548 11.8651C49.4787 11.3651 49.8622 10.9915 50.3054 10.7443C50.7486 10.4943 51.2102 10.3693 51.6903 10.3693C52.054 10.3693 52.348 10.4318 52.5724 10.5568C52.7997 10.679 52.9744 10.8324 53.0966 11.017C53.2188 11.1989 53.304 11.3778 53.3523 11.554H53.4077L53.9574 8.27273H55.7685L54.3196 17H52.5298L52.7045 15.9517H52.6278C52.5142 16.1335 52.3636 16.3139 52.1761 16.4929C51.9915 16.669 51.767 16.8153 51.5028 16.9318C51.2415 17.0483 50.9347 17.1065 50.5824 17.1065ZM51.3835 15.6619C51.6733 15.6619 51.9347 15.5824 52.1676 15.4233C52.4006 15.2614 52.5966 15.0355 52.7557 14.7457C52.9148 14.456 53.0256 14.1165 53.0881 13.7273C53.1534 13.3381 53.1548 13 53.0923 12.7131C53.0298 12.4261 52.9077 12.2045 52.7259 12.0483C52.5469 11.892 52.3097 11.8139 52.0142 11.8139C51.7159 11.8139 51.4517 11.8949 51.2216 12.0568C50.9943 12.2187 50.8054 12.4432 50.6548 12.7301C50.5071 13.017 50.402 13.3494 50.3395 13.7273C50.277 14.108 50.2727 14.4446 50.3267 14.7372C50.3807 15.027 50.4957 15.2543 50.6719 15.419C50.848 15.581 51.0852 15.6619 51.3835 15.6619ZM58.7738 17.1278C58.1062 17.1278 57.5536 16.9858 57.1161 16.7017C56.6786 16.4148 56.3704 16.017 56.1914 15.5085C56.0153 14.9972 55.9826 14.402 56.0934 13.723C56.2013 13.0526 56.4258 12.4659 56.7667 11.9631C57.1076 11.4602 57.5408 11.0696 58.0664 10.7912C58.592 10.5099 59.1843 10.3693 59.8434 10.3693C60.5082 10.3693 61.0593 10.5128 61.4968 10.7997C61.9343 11.0838 62.2425 11.4815 62.4215 11.9929C62.6005 12.5043 62.6346 13.0994 62.5238 13.7784C62.413 14.446 62.1857 15.0312 61.842 15.5341C61.4982 16.0369 61.065 16.429 60.5423 16.7102C60.0195 16.9886 59.43 17.1278 58.7738 17.1278ZM58.9528 15.7216C59.2596 15.7216 59.5309 15.6349 59.7667 15.4616C60.0053 15.2855 60.2028 15.0469 60.359 14.7457C60.5181 14.4418 60.6289 14.098 60.6914 13.7145C60.7539 13.3366 60.7582 13.0014 60.7042 12.7088C60.6502 12.4134 60.5366 12.1804 60.3633 12.0099C60.1928 11.8395 59.9585 11.7543 59.6602 11.7543C59.3533 11.7543 59.0806 11.8423 58.842 12.0185C58.6033 12.1918 58.4059 12.4304 58.2496 12.7344C58.0934 13.0384 57.984 13.3835 57.9215 13.7699C57.8619 14.1449 57.8576 14.4801 57.9087 14.7756C57.9599 15.0682 58.0721 15.2997 58.2454 15.4702C58.4187 15.6378 58.6545 15.7216 58.9528 15.7216ZM65.6218 13.2159L64.9911 17H63.18L64.271 10.4545H65.9968L65.8093 11.6094H65.8817C66.0891 11.2259 66.3817 10.9233 66.7596 10.7017C67.1403 10.4801 67.5735 10.3693 68.0593 10.3693C68.5138 10.3693 68.8931 10.4688 69.1971 10.6676C69.5039 10.8665 69.7198 11.1491 69.8448 11.5156C69.9727 11.8821 69.994 12.321 69.9087 12.8324L69.2099 17H67.3945L68.038 13.1562C68.1033 12.7557 68.0522 12.4432 67.8846 12.2188C67.7198 11.9915 67.4542 11.8778 67.0877 11.8778C66.8434 11.8778 66.619 11.9304 66.4144 12.0355C66.2099 12.1406 66.038 12.294 65.8988 12.4957C65.7624 12.6946 65.6701 12.9347 65.6218 13.2159ZM73.598 17.1278C72.9276 17.1278 72.3722 16.9915 71.9318 16.7188C71.4915 16.4432 71.1818 16.054 71.0028 15.5511C70.8267 15.0455 70.7969 14.4474 70.9134 13.7571C71.027 13.0838 71.2557 12.4929 71.5994 11.9844C71.946 11.4759 72.3807 11.0795 72.9034 10.7955C73.4261 10.5114 74.0085 10.3693 74.6506 10.3693C75.0824 10.3693 75.473 10.4389 75.8224 10.5781C76.1747 10.7145 76.4673 10.9219 76.7003 11.2003C76.9332 11.4759 77.0923 11.821 77.1776 12.2358C77.2656 12.6506 77.2642 13.1364 77.1733 13.6932L77.0923 14.1918H71.5696L71.7443 13.0668H75.5625C75.6051 12.8054 75.5881 12.5739 75.5114 12.3722C75.4347 12.1705 75.3068 12.0128 75.1278 11.8991C74.9489 11.7827 74.7287 11.7244 74.4673 11.7244C74.2003 11.7244 73.9503 11.7898 73.7173 11.9205C73.4844 12.0511 73.2884 12.223 73.1293 12.4361C72.973 12.6463 72.8722 12.875 72.8267 13.1222L72.6264 14.2386C72.5696 14.5824 72.581 14.8679 72.6605 15.0952C72.7429 15.3224 72.8849 15.4929 73.0866 15.6065C73.2884 15.7173 73.544 15.7727 73.8537 15.7727C74.0554 15.7727 74.2443 15.7443 74.4205 15.6875C74.5994 15.6307 74.7585 15.5469 74.8977 15.4361C75.0369 15.3224 75.1506 15.1818 75.2386 15.0142L76.8963 15.125C76.7429 15.5284 76.5099 15.8807 76.1974 16.1818C75.8849 16.4801 75.5085 16.7131 75.0682 16.8807C74.6307 17.0455 74.1406 17.1278 73.598 17.1278ZM81.4251 8.27273L80.2489 14.3835H78.6978L79.5373 8.27273H81.4251ZM79.1282 17.1108C78.8413 17.1108 78.6055 17.0114 78.4208 16.8125C78.239 16.6136 78.1566 16.3722 78.1737 16.0881C78.1935 15.8068 78.3114 15.5696 78.5273 15.3764C78.7461 15.1804 78.9975 15.0824 79.2816 15.0824C79.5543 15.0824 79.7844 15.1804 79.9719 15.3764C80.1594 15.5724 80.2418 15.8097 80.2191 16.0881C80.2049 16.2756 80.1438 16.4474 80.0359 16.6037C79.9308 16.7571 79.7972 16.8807 79.6353 16.9744C79.4734 17.0653 79.3043 17.1108 79.1282 17.1108Z" fill="white"/>
<defs>
<linearGradient id="paint0_linear_437_365" x1="0" y1="25.7822" x2="125" y2="25.7822" gradientUnits="userSpaceOnUse">
<stop stop-color="#85B1FF"/>
<stop offset="1" stop-color="#BCABFF"/>
</linearGradient>
<linearGradient id="paint1_linear_437_365" x1="62.5" y1="3.60394" x2="62.5" y2="22.4554" gradientUnits="userSpaceOnUse">
<stop stop-color="#AECBFF"/>
<stop offset="1" stop-color="#CEC2FC"/>
</linearGradient>
</defs>
</svg>
