<svg width="175" height="21" viewBox="0 0 175 21" fill="none" xmlns="http://www.w3.org/2000/svg">
<path d="M1.97 15.9C1.67 15.9 1.4 15.81 1.16 15.63C0.9 15.45 0.66 15.29 0.44 15.15C0.62 15.17 0.81 15.19 1.01 15.21C1.19 15.25 1.38 15.27 1.58 15.27C2.22 15.27 2.88 15.13 3.56 14.85C4.22 14.57 4.76 14.19 5.18 13.71L5.3 13.77C5.86 12.97 6.43 12.19 7.01 11.43C7.59 10.67 8.15 9.89 8.69 9.09H8.63L8.51 9.3L8.45 9.24V9.09L8.3 9.15L8.21 8.94H8.15C7.89 8.94 7.66 8.8 7.46 8.52C7.26 8.24 7.1 7.93 6.98 7.59C6.88 7.25 6.81 6.98 6.77 6.78C6.91 6.64 7.1 6.46 7.34 6.24C7.6 6 7.86 5.79 8.12 5.61C8.38 5.41 8.59 5.31 8.75 5.31C8.87 5.31 9.02 5.38 9.2 5.52C9.38 5.66 9.56 5.82 9.74 6C9.92 6.16 10.05 6.28 10.13 6.36C10.43 6.18 10.65 5.92 10.79 5.58C10.95 5.24 11.08 4.88 11.18 4.5C11.28 4.1 11.37 3.76 11.45 3.48L11.33 3.27L10.88 3.72L10.73 3.66C10.85 3.4 11 3.04 11.18 2.58C11.38 2.1 11.62 1.67 11.9 1.29C12.18 0.91 12.48 0.72 12.8 0.72C12.94 0.72 13.19 0.77 13.55 0.87C13.93 0.969999 14.29 1.09 14.63 1.23C14.97 1.35 15.14 1.48 15.14 1.62C15 2 14.81 2.36 14.57 2.7C14.35 3.04 14.08 3.34 13.76 3.6L13.49 3.54L13.58 3.81L13.43 3.9L13.46 3.99L13.4 4.14L13.19 4.08L12.98 4.29L13.22 4.35V4.44L13.07 4.71L12.92 4.68L12.68 4.89V5.07C12.68 5.13 12.59 5.31 12.41 5.61C12.25 5.89 12.05 6.22 11.81 6.6C11.59 6.96 11.38 7.3 11.18 7.62C10.98 7.94 10.85 8.16 10.79 8.28C10.89 8.42 10.99 8.56 11.09 8.7C11.19 8.82 11.29 8.94 11.39 9.06C11.99 8.44 12.68 7.74 13.46 6.96C14.24 6.18 15.08 5.4 15.98 4.62C16.88 3.82 17.81 3.09 18.77 2.43C19.73 1.75 20.69 1.21 21.65 0.809999C22.63 0.389999 23.57 0.179999 24.47 0.179999C24.83 0.179999 25.26 0.249999 25.76 0.389999C26.26 0.529999 26.58 0.8 26.72 1.2C26.42 1.1 26.12 1.05 25.82 1.05C25.52 1.05 25.28 1.09 25.1 1.17L24.89 1.05C23.63 1.41 22.5 1.79 21.5 2.19C20.5 2.57 19.54 3.04 18.62 3.6C17.7 4.16 16.72 4.86 15.68 5.7C15.52 5.84 15.23 6.08 14.81 6.42C14.41 6.76 13.97 7.14 13.49 7.56C13.03 7.96 12.62 8.33 12.26 8.67C11.92 9.01 11.73 9.26 11.69 9.42C11.95 9.9 12.31 10.42 12.77 10.98C13.23 11.52 13.74 12.06 14.3 12.6C14.86 13.14 15.42 13.63 15.98 14.07C16.54 14.51 17.06 14.87 17.54 15.15L17.81 15.12C18.09 15.18 18.35 15.21 18.59 15.21C19.17 15.21 19.7 15.09 20.18 14.85C20.66 14.61 21.17 14.41 21.71 14.25C21.35 14.71 21.04 15.06 20.78 15.3C20.52 15.54 20.22 15.69 19.88 15.75C19.54 15.83 19.08 15.87 18.5 15.87H18.08L17.9 15.78V15.63C17.82 15.47 17.67 15.39 17.45 15.39C17.29 15.39 17.12 15.41 16.94 15.45C16.78 15.51 16.62 15.54 16.46 15.54L16.34 15.51L16.13 15.36C16.01 15.4 15.92 15.42 15.86 15.42C15.7 15.42 15.55 15.36 15.41 15.24C15.27 15.14 15.15 15.05 15.05 14.97L14.69 15.15L14.51 14.88L14.45 14.7L14.3 14.58L14.24 14.82C14 14.78 13.76 14.7 13.52 14.58C13.3 14.46 13.14 14.29 13.04 14.07C12.54 13.55 12.05 13.03 11.57 12.51C11.09 11.99 10.65 11.44 10.25 10.86C10.05 11.04 9.84 11.23 9.62 11.43C9.42 11.63 9.23 11.84 9.05 12.06L8.87 12C9.03 11.74 9.2 11.49 9.38 11.25C9.58 11.01 9.78 10.77 9.98 10.53L9.59 10.14C9.45 10.34 9.31 10.56 9.17 10.8C9.05 11.02 8.92 11.24 8.78 11.46C8.64 11.54 8.48 11.69 8.3 11.91C8.12 12.11 7.94 12.3 7.76 12.48C7.58 12.66 7.42 12.77 7.28 12.81C7.18 12.97 6.97 13.17 6.65 13.41C6.33 13.63 6.15 13.8 6.11 13.92C5.87 14.06 5.59 14.16 5.27 14.22C4.95 14.26 4.72 14.43 4.58 14.73L4.61 14.88C4.19 15.08 3.77 15.3 3.35 15.54C2.91 15.78 2.45 15.9 1.97 15.9ZM29.348 14.7C29.048 14.7 28.818 14.58 28.658 14.34L27.968 14.01C27.888 13.83 27.848 13.61 27.848 13.35C27.848 12.93 27.948 12.48 28.148 12C28.368 11.5 28.578 11.08 28.778 10.74C28.638 10.66 28.518 10.56 28.418 10.44C28.318 10.32 28.218 10.2 28.118 10.08L28.028 10.02C27.948 10.1 27.858 10.17 27.758 10.23C27.658 10.29 27.558 10.33 27.458 10.35C27.278 10.53 27.018 10.83 26.678 11.25C26.338 11.65 25.968 12.07 25.568 12.51C25.168 12.93 24.778 13.3 24.398 13.62C24.038 13.94 23.748 14.1 23.528 14.1L23.498 14.04C23.518 13.92 23.608 13.79 23.768 13.65C23.948 13.49 24.078 13.37 24.158 13.29C24.198 13.13 24.298 12.99 24.458 12.87C24.618 12.75 24.768 12.66 24.908 12.6H24.938L25.118 12.33L25.268 12.24L25.238 12.21L25.448 12.06C25.488 11.96 25.548 11.87 25.628 11.79C25.708 11.71 25.778 11.63 25.838 11.55V11.49C26.278 11.15 26.678 10.78 27.038 10.38C27.418 9.96 27.808 9.55 28.208 9.15L28.238 9.12L28.208 8.94C28.208 8.72 28.258 8.48 28.358 8.22C28.478 7.94 28.608 7.73 28.748 7.59C28.888 7.39 29.058 7.18 29.258 6.96C29.478 6.72 29.718 6.6 29.978 6.6C30.178 6.6 30.298 6.7 30.338 6.9C30.378 7.08 30.398 7.24 30.398 7.38C30.398 7.88 30.268 8.27 30.008 8.55C29.748 8.81 29.478 9.01 29.198 9.15C28.938 9.29 28.808 9.44 28.808 9.6L29.288 9.81L29.468 9.66L29.498 9.69H29.558C29.678 9.63 29.798 9.58 29.918 9.54C30.038 9.48 30.168 9.45 30.308 9.45C30.428 9.45 30.548 9.49 30.668 9.57C30.788 9.63 30.888 9.69 30.968 9.75L30.998 10.02C31.018 10.2 30.938 10.4 30.758 10.62C30.598 10.82 30.398 11.06 30.158 11.34C29.918 11.6 29.708 11.92 29.528 12.3C29.348 12.66 29.258 13.08 29.258 13.56C29.258 13.68 29.278 13.81 29.318 13.95C29.378 14.07 29.488 14.13 29.648 14.13C29.888 14.13 30.158 14.04 30.458 13.86C30.758 13.68 31.058 13.48 31.358 13.26C31.658 13.02 31.908 12.84 32.108 12.72L32.228 12.87C32.228 13.01 32.108 13.18 31.868 13.38C31.628 13.58 31.338 13.78 30.998 13.98C30.658 14.18 30.328 14.35 30.008 14.49C29.708 14.63 29.488 14.7 29.348 14.7ZM40.73 16.77L40.28 16.05C40.26 15.93 40.22 15.81 40.16 15.69C40.12 15.57 40.1 15.44 40.1 15.3C40.1 15.1 40.11 14.92 40.13 14.76C40.15 14.58 40.17 14.39 40.19 14.19L40.4 13.71L40.37 13.65C40.41 13.57 40.44 13.49 40.46 13.41C40.5 13.31 40.53 13.22 40.55 13.14L40.43 13.05C40.29 13.05 40.09 13.19 39.83 13.47C39.59 13.73 39.31 13.99 38.99 14.25C38.69 14.51 38.34 14.64 37.94 14.64C37.68 14.64 37.44 14.56 37.22 14.4C37 14.24 36.9 14 36.92 13.68L36.89 13.62C37.11 13.22 37.3 12.81 37.46 12.39C37.62 11.97 37.79 11.56 37.97 11.16L37.79 10.83L37.7 10.86L37.55 10.8L37.25 11.1L36.83 11.19L36.89 11.34H36.83L36.53 11.43L36.47 11.55H36.29L36.26 11.73C36.16 11.83 36.05 11.94 35.93 12.06C35.81 12.18 35.67 12.25 35.51 12.27L33.71 13.98L33.68 13.89C33.68 13.75 33.73 13.64 33.83 13.56C33.93 13.46 34.02 13.37 34.1 13.29L34.13 13.23L34.22 13.17L34.25 13.2L34.34 12.99H34.31C34.35 12.95 34.39 12.9 34.43 12.84C34.49 12.76 34.56 12.72 34.64 12.72H34.7C34.7 12.72 34.7 12.7 34.7 12.66C34.82 12.48 34.98 12.32 35.18 12.18H35.27L35.36 12.09L35.33 12.03L35.63 11.91C35.61 11.71 35.77 11.49 36.11 11.25C36.45 11.01 36.82 10.8 37.22 10.62C37.62 10.42 37.9 10.32 38.06 10.32C38.28 10.32 38.54 10.38 38.84 10.5C39.14 10.6 39.29 10.79 39.29 11.07C39.29 11.63 39.19 12.08 38.99 12.42C38.79 12.76 38.68 12.98 38.66 13.08L38.75 13.14C38.99 13.14 39.18 13.07 39.32 12.93C39.46 12.77 39.6 12.61 39.74 12.45C39.9 12.29 40.09 12.2 40.31 12.18C40.29 12.16 40.3 12.15 40.34 12.15C40.38 12.13 40.4 12.14 40.4 12.18C40.48 12.04 40.66 11.82 40.94 11.52C41.22 11.2 41.51 10.9 41.81 10.62C42.11 10.34 42.32 10.2 42.44 10.2C42.66 10.2 42.91 10.28 43.19 10.44C43.47 10.6 43.61 10.8 43.61 11.04C43.61 11.14 43.53 11.33 43.37 11.61C43.23 11.87 43.06 12.15 42.86 12.45C42.66 12.75 42.46 13.02 42.26 13.26C42.08 13.48 41.94 13.61 41.84 13.65C41.66 13.97 41.41 14.34 41.09 14.76C40.79 15.16 40.64 15.56 40.64 15.96C40.64 16.1 40.66 16.23 40.7 16.35C40.74 16.47 40.76 16.59 40.76 16.71L40.73 16.77ZM42.0601 20.31C41.6601 20.31 41.2601 20.21 40.8601 20.01C40.4401 19.83 40.0901 19.57 39.8101 19.23C39.5301 18.89 39.3901 18.5 39.3901 18.06L39.4801 17.85C39.6801 18.07 39.8301 18.31 39.9301 18.57C40.0301 18.83 40.1701 19.04 40.3501 19.2C40.5301 19.38 40.8301 19.47 41.2501 19.47C41.3301 19.47 41.4101 19.46 41.4901 19.44C41.5701 19.44 41.6501 19.43 41.7301 19.41C41.8301 19.45 42.0301 19.36 42.3301 19.14C42.6301 18.92 42.9701 18.64 43.3501 18.3C43.7301 17.96 44.1101 17.59 44.4901 17.19C44.8501 16.81 45.1601 16.46 45.4201 16.14C45.6601 15.84 45.7901 15.63 45.8101 15.51C45.9701 15.27 46.1301 15.01 46.2901 14.73C46.4701 14.45 46.6301 14.18 46.7701 13.92L46.8301 13.95L46.9201 13.83C47.0801 13.65 47.1801 13.47 47.2201 13.29C47.2601 13.11 47.3801 12.94 47.5801 12.78C47.7401 12.54 47.8801 12.3 48.0001 12.06C48.1401 11.82 48.2101 11.56 48.2101 11.28C48.2101 11.16 48.2401 11.05 48.3001 10.95C48.3601 10.83 48.4201 10.72 48.4801 10.62C48.8801 10 49.1401 9.43 49.2601 8.91C49.3801 8.39 49.5301 7.79 49.7101 7.11C49.6701 7.01 49.6101 6.92 49.5301 6.84C49.4501 6.76 49.3801 6.68 49.3201 6.6H49.3801C49.7601 6.6 50.0301 6.71 50.1901 6.93C50.3501 7.15 50.4301 7.43 50.4301 7.77C50.4301 7.89 50.4001 8.11 50.3401 8.43C50.2801 8.73 50.1901 9.06 50.0701 9.42C49.9701 9.78 49.8501 10.09 49.7101 10.35C49.5901 10.61 49.4601 10.74 49.3201 10.74C49.3001 10.9 49.2601 11.06 49.2001 11.22C49.1601 11.36 49.1101 11.5 49.0501 11.64C49.1501 11.54 49.2501 11.42 49.3501 11.28C49.4701 11.12 49.6001 11.03 49.7401 11.01C49.8601 10.91 49.9401 10.78 49.9801 10.62C50.0401 10.46 50.1401 10.33 50.2801 10.23C50.3201 10.23 50.3801 10.21 50.4601 10.17C50.5601 10.11 50.5801 10.06 50.5201 10.02L50.9401 9.75H51.0901C51.1301 9.55 51.2601 9.43 51.4801 9.39C51.7201 9.17 51.9001 9.02 52.0201 8.94C52.1601 8.86 52.3001 8.81 52.4401 8.79C52.6001 8.75 52.8301 8.71 53.1301 8.67L53.3701 8.79C53.4701 8.73 53.5601 8.7 53.6401 8.7C53.9201 8.7 54.1201 8.87 54.2401 9.21C54.3801 9.55 54.4501 9.83 54.4501 10.05C54.4501 10.59 54.3401 10.99 54.1201 11.25C53.9001 11.49 53.6501 11.71 53.3701 11.91C53.1101 12.09 52.9001 12.36 52.7401 12.72C52.3801 12.9 52.0301 13.13 51.6901 13.41C51.4101 13.49 51.1701 13.64 50.9701 13.86C50.7701 14.08 50.5301 14.24 50.2501 14.34C49.7901 14.48 49.3101 14.62 48.8101 14.76C48.3301 14.88 47.8401 14.92 47.3401 14.88C47.2601 15.18 47.0801 15.56 46.8001 16.02C46.5201 16.5 46.2201 16.96 45.9001 17.4C45.5801 17.86 45.3201 18.24 45.1201 18.54L44.5801 18.78C44.5201 18.86 44.4601 18.94 44.4001 19.02C44.3201 19.12 44.2401 19.19 44.1601 19.23H44.0401C43.7601 19.55 43.4801 19.81 43.2001 20.01C42.9001 20.21 42.5201 20.31 42.0601 20.31ZM47.7301 14.04C48.9301 13.98 50.0301 13.74 51.0301 13.32C52.0501 12.9 52.9001 12.16 53.5801 11.1C53.7401 10.84 53.8201 10.6 53.8201 10.38C53.8201 10.18 53.7401 10.04 53.5801 9.96C53.4201 9.88 53.2501 9.84 53.0701 9.84C52.5701 9.84 52.0501 9.98 51.5101 10.26C50.9701 10.52 50.4501 10.87 49.9501 11.31C49.4701 11.73 49.0301 12.19 48.6301 12.69C48.2501 13.17 47.9501 13.62 47.7301 14.04ZM48.4501 12.51L48.5401 12.45V12.39L48.5101 12.45L48.4501 12.51ZM62.8719 16.98L62.2719 16.29C62.1719 15.89 62.0619 15.48 61.9419 15.06C61.8419 14.66 61.7719 14.25 61.7319 13.83L61.8819 13.26L61.8219 13.23C61.9019 13.01 61.9819 12.79 62.0619 12.57C62.1619 12.33 62.2119 12.1 62.2119 11.88C62.1119 11.98 62.0019 12.08 61.8819 12.18C61.7819 12.28 61.7019 12.4 61.6419 12.54C61.5619 12.62 61.4919 12.72 61.4319 12.84C61.3719 12.96 61.2919 13.06 61.1919 13.14L61.1619 13.41C60.8819 13.47 60.6019 13.61 60.3219 13.83C60.0619 14.03 59.8019 14.23 59.5419 14.43C59.2819 14.61 59.0019 14.7 58.7019 14.7C58.5619 14.7 58.3819 14.69 58.1619 14.67C57.9619 14.63 57.8119 14.57 57.7119 14.49C57.4519 14.43 57.2619 14.36 57.1419 14.28C57.0419 14.18 56.9619 14 56.9019 13.74L57.0219 13.35L56.9319 13.11C57.0319 12.79 57.1019 12.56 57.1419 12.42C57.2019 12.28 57.2819 12.16 57.3819 12.06C57.5019 11.96 57.6919 11.81 57.9519 11.61C57.9719 11.51 58.0219 11.44 58.1019 11.4C58.2019 11.34 58.2919 11.3 58.3719 11.28L58.4019 11.13L58.7019 10.77L58.7919 10.83L58.9719 10.56C59.1119 10.46 59.2519 10.4 59.3919 10.38C59.5519 10.34 59.7019 10.28 59.8419 10.2C59.8819 9.98 60.0119 9.85 60.2319 9.81C60.4719 9.75 60.6119 9.64 60.6519 9.48H60.7719L61.2819 9.15L61.4619 9.24L61.8819 8.97C62.0019 8.97 62.1119 8.96 62.2119 8.94C62.3319 8.92 62.4419 8.91 62.5419 8.91L62.6619 8.97C62.2619 9.11 61.8019 9.34 61.2819 9.66C60.7619 9.96 60.2519 10.32 59.7519 10.74C59.2719 11.14 58.8719 11.58 58.5519 12.06C58.2319 12.54 58.0719 13.02 58.0719 13.5C58.0719 13.88 58.2719 14.07 58.6719 14.07C59.0319 14.07 59.4019 13.96 59.7819 13.74C60.1819 13.52 60.5419 13.25 60.8619 12.93C61.1819 12.61 61.4119 12.3 61.5519 12L62.0619 11.58C62.1019 11.48 62.1519 11.41 62.2119 11.37C62.2719 11.33 62.3119 11.26 62.3319 11.16C62.4719 11.14 62.5719 11.02 62.6319 10.8C62.6919 10.58 62.7619 10.34 62.8419 10.08C62.9219 9.8 63.0319 9.56 63.1719 9.36C63.3119 9.16 63.5219 9.06 63.8019 9.06C64.0219 9.06 64.2719 9.16 64.5519 9.36C64.8319 9.54 64.9719 9.76 64.9719 10.02C64.9719 10.16 64.8519 10.43 64.6119 10.83C64.3719 11.23 64.0919 11.7 63.7719 12.24C63.4719 12.78 63.2019 13.34 62.9619 13.92C62.7219 14.5 62.6019 15.05 62.6019 15.57C62.6019 15.79 62.6419 16.01 62.7219 16.23C62.8219 16.45 62.8819 16.67 62.9019 16.89L62.8719 16.98ZM82.4984 16.08L82.1984 15.87L81.9284 15.84L81.6584 15.72L81.2684 15.84C81.1084 15.5 80.8484 15.35 80.4884 15.39C79.8684 15.07 79.2784 14.66 78.7184 14.16C78.1584 13.64 77.6984 13.06 77.3384 12.42C76.9784 11.76 76.7984 11.06 76.7984 10.32C76.7984 10.16 76.8284 9.91 76.8884 9.57C76.9484 9.21 77.0484 8.88 77.1884 8.58C77.3284 8.28 77.4984 8.13 77.6984 8.13C77.8584 7.95 78.0784 7.68 78.3584 7.32C78.6584 6.94 78.9684 6.6 79.2884 6.3C79.6084 6 79.8884 5.85 80.1284 5.85C80.3284 5.85 80.4184 5.78 80.3984 5.64C80.3984 5.48 80.4284 5.33 80.4884 5.19C80.5484 5.05 80.7584 4.98 81.1184 4.98C81.2784 4.98 81.4084 4.92 81.5084 4.8C81.6284 4.68 81.6984 4.55 81.7184 4.41L81.9584 4.26L82.0784 4.35C82.2784 4.35 82.4484 4.29 82.5884 4.17C82.7484 4.03 82.8684 3.88 82.9484 3.72L83.2484 3.84C83.7484 3.7 84.1984 3.47 84.5984 3.15C85.0184 2.83 85.4784 2.63 85.9784 2.55L86.2184 2.34C86.5784 2.24 86.9384 2.15 87.2984 2.07C87.6584 1.99 88.0284 1.97 88.4084 2.01C88.6284 1.93 88.8384 1.85 89.0384 1.77C89.2584 1.69 89.4884 1.65 89.7284 1.65C90.1684 1.65 90.5884 1.73 90.9884 1.89C91.4084 2.05 91.8384 2.13 92.2784 2.13C92.4584 2.13 92.5684 2.05 92.6084 1.89C92.6484 1.73 92.6684 1.59 92.6684 1.47C92.6684 1.31 92.6584 1.16 92.6384 1.02C92.6384 0.859999 92.5884 0.709999 92.4884 0.569999L92.6384 0.479999C92.7584 0.479999 92.9884 0.529999 93.3284 0.629999C93.6684 0.709999 94.0384 0.809999 94.4384 0.93C94.8384 1.05 95.1884 1.18 95.4884 1.32C95.7884 1.44 95.9584 1.55 95.9984 1.65L95.8784 2.19L95.1884 2.46L94.9184 2.34C94.7384 2.38 94.6384 2.5 94.6184 2.7C94.6184 2.88 94.6084 3.05 94.5884 3.21C94.5884 3.37 94.5084 3.45 94.3484 3.45C94.3284 3.45 94.2884 3.45 94.2284 3.45C94.1884 3.43 94.1384 3.41 94.0784 3.39L94.0484 3.45L94.3184 3.93L94.2584 4.05L94.3184 4.2L94.2584 4.29L93.9884 4.17L93.8684 4.23L93.8984 4.38C93.8184 4.54 93.7584 4.78 93.7184 5.1C93.6984 5.4 93.5484 5.55 93.2684 5.55C92.9884 5.81 92.6884 6.13 92.3684 6.51C92.0684 6.89 91.6984 7.1 91.2584 7.14V7.11L91.3784 6.36L91.2584 6.15C91.4184 5.75 91.5484 5.37 91.6484 5.01C91.7684 4.63 91.8484 4.23 91.8884 3.81L92.1884 3.48C92.1884 3.42 92.2084 3.34 92.2484 3.24C92.2884 3.12 92.3084 3.04 92.3084 3C92.3084 2.9 92.2984 2.81 92.2784 2.73C92.2584 2.63 92.2384 2.54 92.2184 2.46C92.0984 2.32 91.9384 2.23 91.7384 2.19C91.5384 2.15 91.3384 2.13 91.1384 2.13C90.2784 2.13 89.3084 2.33 88.2284 2.73C87.1684 3.11 86.0984 3.64 85.0184 4.32C83.9584 5 82.9784 5.77 82.0784 6.63C81.1784 7.49 80.4584 8.4 79.9184 9.36C79.3784 10.32 79.1084 11.27 79.1084 12.21C79.1084 13.05 79.3884 13.62 79.9484 13.92C80.5084 14.22 81.1584 14.37 81.8984 14.37C82.6984 14.37 83.4884 14.28 84.2684 14.1C85.0484 13.9 85.8084 13.66 86.5484 13.38C86.7484 13.38 86.9384 13.36 87.1184 13.32C87.2984 13.26 87.4584 13.19 87.5984 13.11V13.05L88.1684 12.93L88.3184 13.02L88.4084 12.93V12.81L88.8284 12.72L89.2184 12.42L89.4284 12.81L89.2484 12.72L89.0984 13.02L89.1284 13.08C88.6284 13.56 87.9984 14.02 87.2384 14.46C86.4984 14.9 85.7184 15.25 84.8984 15.51C84.0984 15.77 83.3384 15.89 82.6184 15.87L82.6484 15.96L82.4984 16.08ZM90.8384 7.8L90.9284 7.32L91.1084 7.47L90.8384 7.8ZM90.8984 11.85L90.7784 11.73V11.67C90.9384 11.57 91.1184 11.51 91.3184 11.49C91.1984 11.63 91.0584 11.75 90.8984 11.85ZM89.6384 12.75L89.4884 12.63C89.4884 12.51 89.5184 12.41 89.5784 12.33C89.6584 12.25 89.7584 12.23 89.8784 12.27L89.7584 12.21C90.0184 12.17 90.2184 12.08 90.3584 11.94H90.6584L90.1184 12.54V12.57L89.9984 12.54L89.8484 12.72L89.6384 12.75ZM96.8649 14.97C96.7249 14.97 96.5249 14.89 96.2649 14.73C96.0249 14.55 95.7949 14.35 95.5749 14.13C95.3749 13.91 95.2749 13.73 95.2749 13.59C95.2749 13.53 95.3949 13.45 95.6349 13.35C95.8749 13.23 96.1549 13.11 96.4749 12.99C96.8149 12.85 97.1249 12.72 97.4049 12.6C97.6849 12.48 97.8749 12.38 97.9749 12.3V12.36C97.9749 12.46 97.9149 12.6 97.7949 12.78C97.6949 12.96 97.6049 13.09 97.5249 13.17L97.5849 13.44L97.5549 13.8C97.4949 13.88 97.4349 14.02 97.3749 14.22C97.3349 14.4 97.2749 14.57 97.1949 14.73C97.1349 14.89 97.0249 14.97 96.8649 14.97ZM111.872 16.92C111.512 16.92 111.122 16.77 110.702 16.47C110.302 16.17 110.102 15.82 110.102 15.42C110.102 15.12 110.162 14.83 110.282 14.55C110.402 14.25 110.532 13.97 110.672 13.71V13.62C110.832 13.38 111.032 13.18 111.272 13.02C111.332 12.92 111.392 12.8 111.452 12.66C111.532 12.5 111.632 12.41 111.752 12.39L111.902 12.48C111.682 12.76 111.472 13.08 111.272 13.44L110.912 15.3C111.032 15.48 111.222 15.57 111.482 15.57C111.842 15.57 112.282 15.5 112.802 15.36C113.322 15.24 113.842 15.1 114.362 14.94C114.882 14.78 115.322 14.64 115.682 14.52V14.49C115.782 14.49 115.882 14.48 115.982 14.46C116.102 14.42 116.182 14.34 116.222 14.22L116.192 14.13L116.432 14.16C116.552 14.1 116.672 14.04 116.792 13.98C116.912 13.92 117.042 13.88 117.182 13.86C117.262 13.78 117.472 13.61 117.812 13.35C118.152 13.07 118.532 12.78 118.952 12.48C119.372 12.16 119.752 11.88 120.092 11.64C120.432 11.4 120.642 11.26 120.722 11.22L120.932 10.89L121.172 10.77V10.47C121.212 10.17 121.072 9.94 120.752 9.78C120.432 9.6 120.012 9.45 119.492 9.33C118.972 9.21 118.412 9.09 117.812 8.97C117.232 8.85 116.672 8.69 116.132 8.49C115.612 8.27 115.182 7.99 114.842 7.65C114.522 7.31 114.362 6.86 114.362 6.3L114.212 6.39L114.152 6.3C114.152 5.88 114.392 5.43 114.872 4.95C115.372 4.47 116.002 4 116.762 3.54C117.522 3.06 118.312 2.62 119.132 2.22C119.972 1.8 120.742 1.45 121.442 1.17C122.162 0.87 122.712 0.66 123.092 0.539999C123.432 0.579999 123.742 0.659999 124.022 0.779999C124.322 0.879999 124.512 1.13 124.592 1.53C124.812 1.45 124.922 1.28 124.922 1.02C124.922 0.879999 124.912 0.749999 124.892 0.629999C124.872 0.489999 124.832 0.369999 124.772 0.269999L124.892 0.209999C124.992 0.209999 125.172 0.249999 125.432 0.329999C125.712 0.389999 126.012 0.469999 126.332 0.569999C126.652 0.669999 126.932 0.77 127.172 0.87C127.432 0.969999 127.582 1.06 127.622 1.14L127.502 1.59L126.962 1.8L126.752 1.71C126.552 1.79 126.462 1.96 126.482 2.22C126.502 2.48 126.442 2.63 126.302 2.67L126.032 2.55V2.58L126.242 3L126.182 3.09L126.272 3.24L126.182 3.27L125.972 3.18C125.892 3.34 125.832 3.57 125.792 3.87C125.752 4.15 125.622 4.3 125.402 4.32C125.182 4.52 124.942 4.78 124.682 5.1C124.422 5.4 124.122 5.57 123.782 5.61V5.55L123.872 4.95L123.782 4.8C123.842 4.46 123.922 4.1 124.022 3.72C124.122 3.34 124.232 3.01 124.352 2.73C124.192 2.49 124.002 2.27 123.782 2.07C123.582 1.87 123.332 1.77 123.032 1.77C122.672 1.77 122.172 1.88 121.532 2.1C120.892 2.3 120.192 2.58 119.432 2.94C118.692 3.28 117.992 3.67 117.332 4.11C116.672 4.55 116.142 5 115.742 5.46C115.342 5.92 115.172 6.36 115.232 6.78C115.152 6.72 115.102 6.64 115.082 6.54C115.062 6.44 115.052 6.34 115.052 6.24C115.052 6.14 115.052 6.04 115.052 5.94C115.072 5.84 115.092 5.75 115.112 5.67C114.972 5.87 114.902 6.1 114.902 6.36C114.902 6.84 115.102 7.21 115.502 7.47C115.902 7.73 116.422 7.93 117.062 8.07C117.702 8.21 118.382 8.34 119.102 8.46C119.822 8.56 120.502 8.68 121.142 8.82C121.782 8.96 122.302 9.17 122.702 9.45C123.102 9.71 123.302 10.08 123.302 10.56C123.302 10.82 123.242 11.06 123.122 11.28C123.002 11.48 122.892 11.69 122.792 11.91C122.572 11.99 122.432 12.1 122.372 12.24C122.312 12.38 122.222 12.54 122.102 12.72C121.942 12.76 121.732 12.9 121.472 13.14C121.232 13.36 121.052 13.46 120.932 13.44C120.852 13.48 120.762 13.54 120.662 13.62C120.582 13.68 120.522 13.76 120.482 13.86L120.392 13.8C120.172 14.1 119.802 14.4 119.282 14.7C118.762 15 118.152 15.28 117.452 15.54C116.772 15.8 116.072 16.03 115.352 16.23C114.652 16.45 113.992 16.62 113.372 16.74C112.752 16.86 112.252 16.92 111.872 16.92ZM123.452 6.15L123.602 5.7L123.752 5.82L123.452 6.15ZM121.652 9.9L121.712 9.75L121.622 9.63L121.442 9.72L121.652 9.9ZM122.972 11.01V10.95L122.792 10.68L122.762 10.83V10.95L122.972 11.01ZM122.402 11.52L122.612 11.4L122.642 11.13L122.612 10.86C122.412 11.06 122.302 11.27 122.282 11.49L122.402 11.52ZM122.432 11.94L122.732 11.61V11.58L122.252 11.73L122.312 11.91L122.432 11.94ZM121.592 12.48L121.922 12.45L122.162 11.97L121.802 12.3L121.682 12.18L121.592 12.45V12.48ZM128.284 15.21C128.104 15.21 127.884 15.09 127.624 14.85C127.384 14.61 127.184 14.43 127.024 14.31C126.984 14.05 126.914 13.82 126.814 13.62C126.714 13.4 126.664 13.17 126.664 12.93C126.664 12.57 126.794 12.15 127.054 11.67C127.334 11.17 127.684 10.68 128.104 10.2C128.544 9.72 128.984 9.32 129.424 9C129.884 8.68 130.294 8.52 130.654 8.52V8.46C130.934 8.52 131.194 8.7 131.434 9C131.694 9.3 131.824 9.58 131.824 9.84C131.824 10.08 131.674 10.33 131.374 10.59C131.094 10.83 130.744 11.06 130.324 11.28C129.924 11.48 129.524 11.64 129.124 11.76C128.744 11.88 128.444 11.94 128.224 11.94V12C128.084 12.22 127.944 12.5 127.804 12.84C127.684 13.16 127.624 13.46 127.624 13.74C127.624 13.84 127.654 13.95 127.714 14.07C127.854 14.17 128.034 14.22 128.254 14.22C128.474 14.2 128.654 14.2 128.794 14.22L128.824 14.25L128.914 14.1C129.174 14.08 129.424 14.02 129.664 13.92V13.74H129.844V13.65L129.964 13.68C130.064 13.64 130.134 13.6 130.174 13.56C130.234 13.5 130.304 13.45 130.384 13.41L130.564 13.5V13.47L131.104 12.96H131.134L131.224 13.02V12.99C131.484 12.75 131.764 12.53 132.064 12.33C132.364 12.13 132.584 11.87 132.724 11.55L133.054 11.31L133.114 11.37C133.114 11.51 133.064 11.64 132.964 11.76C132.864 11.88 132.744 11.96 132.604 12C132.444 12.38 132.204 12.7 131.884 12.96C131.584 13.22 131.274 13.49 130.954 13.77H130.864L130.834 13.92C130.454 14.18 130.054 14.46 129.634 14.76C129.234 15.06 128.784 15.21 128.284 15.21ZM128.854 11.37H128.914V11.31C129.054 11.27 129.294 11.15 129.634 10.95C129.994 10.75 130.334 10.54 130.654 10.32C130.974 10.08 131.144 9.91 131.164 9.81H131.194L131.164 9.66L131.194 9.51C131.174 9.51 131.134 9.51 131.074 9.51C131.014 9.49 130.964 9.48 130.924 9.48C130.664 9.66 130.404 9.83 130.144 9.99C129.884 10.15 129.624 10.31 129.364 10.47H129.304L129.274 10.71C129.154 10.79 129.064 10.89 129.004 11.01C128.944 11.11 128.894 11.23 128.854 11.37ZM133.414 11.28L133.234 11.22L133.204 11.04L133.504 10.95L133.534 11.04L133.414 11.28ZM135.084 15.6C134.844 15.42 134.724 15.18 134.724 14.88C134.724 14.66 134.744 14.45 134.784 14.25C134.844 14.03 134.884 13.81 134.904 13.59H134.934C135.574 11.81 136.394 10.19 137.394 8.73C138.394 7.25 139.534 5.83 140.814 4.47C140.794 4.33 140.894 4.12 141.114 3.84C141.354 3.56 141.614 3.28 141.894 3C142.194 2.72 142.404 2.54 142.524 2.46C142.644 2.46 142.824 2.51 143.064 2.61C143.304 2.71 143.524 2.83 143.724 2.97C143.924 3.09 144.024 3.22 144.024 3.36C144.024 3.5 143.914 3.75 143.694 4.11C143.474 4.45 143.224 4.78 142.944 5.1C142.684 5.4 142.464 5.56 142.284 5.58V5.25L142.104 5.34V5.31L141.924 5.16C141.824 5.3 141.694 5.43 141.534 5.55C141.394 5.65 141.214 5.7 140.994 5.7V5.76L140.874 5.97H140.814V6.12H140.664C140.384 6.12 140.154 6.22 139.974 6.42V6.69L140.064 6.72V6.69L140.214 6.57L140.244 6.6C140.044 7.1 139.754 7.58 139.374 8.04C139.014 8.5 138.644 8.96 138.264 9.42C137.904 9.88 137.614 10.38 137.394 10.92C137.254 11.02 137.074 11.21 136.854 11.49C136.654 11.75 136.474 12.03 136.314 12.33C136.154 12.61 136.074 12.83 136.074 12.99C136.074 13.07 136.074 13.14 136.074 13.2C136.074 13.26 136.084 13.33 136.104 13.41V13.38C136.624 12.96 136.984 12.56 137.184 12.18C137.384 11.78 137.524 11.44 137.604 11.16C137.704 10.86 137.844 10.64 138.024 10.5C138.204 10.34 138.544 10.29 139.044 10.35V10.32C139.244 10.14 139.484 9.92 139.764 9.66C140.044 9.4 140.334 9.17 140.634 8.97C140.954 8.77 141.244 8.67 141.504 8.67C141.544 8.67 141.594 8.69 141.654 8.73C141.734 8.75 141.784 8.77 141.804 8.79L142.014 9.09C142.014 9.27 141.944 9.45 141.804 9.63C141.664 9.79 141.544 9.93 141.444 10.05H141.384V10.17L139.704 11.58C139.664 11.66 139.644 11.74 139.644 11.82C139.644 12 139.694 12.23 139.794 12.51C139.894 12.77 140.034 13.01 140.214 13.23C140.414 13.43 140.624 13.53 140.844 13.53H141.204L141.504 13.29V13.26L141.594 13.29L141.984 13.08L142.014 13.11C141.954 13.31 141.794 13.55 141.534 13.83C141.274 14.11 140.984 14.36 140.664 14.58C140.364 14.78 140.104 14.88 139.884 14.88C139.484 14.88 139.174 14.75 138.954 14.49C138.734 14.23 138.564 13.93 138.444 13.59C138.344 13.23 138.254 12.92 138.174 12.66C138.094 12.4 137.994 12.27 137.874 12.27C137.714 12.27 137.554 12.38 137.394 12.6C137.234 12.82 137.124 12.99 137.064 13.11C136.964 13.19 136.864 13.28 136.764 13.38C136.664 13.48 136.564 13.58 136.464 13.68H136.404L136.134 13.95L136.194 14.01L135.954 14.31L136.044 14.46H135.954L135.774 14.76V14.88H135.744L135.594 14.76V14.85H135.564L135.684 14.97L135.474 15.12L135.144 15.42L135.114 15.6H135.084ZM139.554 11.37H139.614C139.754 11.27 139.934 11.13 140.154 10.95C140.374 10.75 140.574 10.54 140.754 10.32C140.954 10.1 141.054 9.91 141.054 9.75L140.964 9.54L140.934 9.6C140.834 9.64 140.664 9.73 140.424 9.87C140.204 9.99 140.084 10.12 140.064 10.26L139.884 10.17L139.824 10.32L139.794 10.29C139.614 10.41 139.524 10.59 139.524 10.83C139.524 10.93 139.524 11.02 139.524 11.1C139.544 11.18 139.554 11.27 139.554 11.37ZM145.486 15.72C145.226 15.72 145.056 15.59 144.976 15.33C144.916 15.09 144.886 14.87 144.886 14.67C144.886 14.53 144.916 14.26 144.976 13.86C145.056 13.46 145.156 13.08 145.276 12.72C145.396 12.34 145.526 12.15 145.666 12.15C145.686 11.93 145.766 11.65 145.906 11.31C146.046 10.97 146.226 10.77 146.446 10.71V10.68C146.486 10.62 146.536 10.56 146.596 10.5C146.656 10.44 146.716 10.38 146.776 10.32L146.806 10.26V10.29L146.836 9.87C146.936 9.81 147.016 9.71 147.076 9.57C147.136 9.41 147.216 9.29 147.316 9.21L147.406 9.3C147.546 9.14 147.696 8.98 147.856 8.82C148.036 8.64 148.126 8.43 148.126 8.19C148.226 8.03 148.336 7.89 148.456 7.77C148.596 7.63 148.726 7.49 148.846 7.35H148.936C149.036 7.25 149.146 7.2 149.266 7.2L149.386 7.05V6.72L149.506 6.63C149.606 6.49 149.736 6.29 149.896 6.03C150.056 5.77 150.136 5.57 150.136 5.43C150.136 5.37 150.086 5.34 149.986 5.34C149.906 5.34 149.816 5.36 149.716 5.4C149.616 5.42 149.546 5.43 149.506 5.43V5.28L151.036 3.99V3.96C151.296 3.78 151.546 3.59 151.786 3.39C152.026 3.17 152.276 2.98 152.536 2.82C152.756 2.86 152.996 2.93 153.256 3.03C153.516 3.11 153.696 3.26 153.796 3.48V3.87C153.656 4.01 153.416 4.26 153.076 4.62C152.736 4.98 152.346 5.39 151.906 5.85C151.466 6.29 151.026 6.73 150.586 7.17C150.146 7.59 149.756 7.94 149.416 8.22C149.096 8.5 148.876 8.65 148.756 8.67L148.396 9L148.546 9.27L148.396 9.57C148.236 9.61 148.066 9.74 147.886 9.96C147.726 10.16 147.646 10.35 147.646 10.53C147.466 10.61 147.346 10.7 147.286 10.8C147.246 10.9 147.186 11 147.106 11.1C147.046 11.2 146.876 11.3 146.596 11.4L146.506 11.55V12.21L146.626 12.3L146.476 12.24L146.356 12.48H146.296C146.236 12.68 146.206 12.89 146.206 13.11L146.356 13.47C146.436 13.37 146.596 13.22 146.836 13.02C147.076 12.8 147.186 12.64 147.166 12.54L147.406 12.3C147.466 12.1 147.606 11.85 147.826 11.55C148.066 11.23 148.326 10.94 148.606 10.68C148.886 10.42 149.126 10.29 149.326 10.29V10.26L149.776 10.29C150.056 10.43 150.226 10.67 150.286 11.01C150.346 11.35 150.436 11.75 150.556 12.21C150.696 12.65 150.996 13.11 151.456 13.59L151.936 13.29H152.026C152.106 13.19 152.226 13.1 152.386 13.02C152.566 12.94 152.716 12.87 152.836 12.81L152.866 12.84C152.866 12.94 152.716 13.11 152.416 13.35C152.136 13.59 151.836 13.81 151.516 14.01C151.196 14.21 150.966 14.33 150.826 14.37L150.736 14.31L150.436 14.37L150.346 14.22C149.846 14.16 149.486 14.03 149.266 13.83C149.046 13.61 148.896 13.37 148.816 13.11C148.756 12.85 148.706 12.61 148.666 12.39C148.626 12.17 148.516 12.03 148.336 11.97C148.196 12.11 148.066 12.25 147.946 12.39C147.826 12.53 147.706 12.68 147.586 12.84C147.406 12.92 147.226 13.11 147.046 13.41C146.886 13.71 146.726 14.04 146.566 14.4C146.426 14.76 146.266 15.07 146.086 15.33C145.906 15.59 145.706 15.72 145.486 15.72ZM149.086 5.7L149.056 5.61L149.146 5.4L149.326 5.43L149.386 5.64L149.086 5.7ZM161.327 16.98L160.727 16.29C160.627 15.89 160.517 15.48 160.397 15.06C160.297 14.66 160.227 14.25 160.187 13.83L160.337 13.26L160.277 13.23C160.357 13.01 160.437 12.79 160.517 12.57C160.617 12.33 160.667 12.1 160.667 11.88C160.567 11.98 160.457 12.08 160.337 12.18C160.237 12.28 160.157 12.4 160.097 12.54C160.017 12.62 159.947 12.72 159.887 12.84C159.827 12.96 159.747 13.06 159.647 13.14L159.617 13.41C159.337 13.47 159.057 13.61 158.777 13.83C158.517 14.03 158.257 14.23 157.997 14.43C157.737 14.61 157.457 14.7 157.157 14.7C157.017 14.7 156.837 14.69 156.617 14.67C156.417 14.63 156.267 14.57 156.167 14.49C155.907 14.43 155.717 14.36 155.597 14.28C155.497 14.18 155.417 14 155.357 13.74L155.477 13.35L155.387 13.11C155.487 12.79 155.557 12.56 155.597 12.42C155.657 12.28 155.737 12.16 155.837 12.06C155.957 11.96 156.147 11.81 156.407 11.61C156.427 11.51 156.477 11.44 156.557 11.4C156.657 11.34 156.747 11.3 156.827 11.28L156.857 11.13L157.157 10.77L157.247 10.83L157.427 10.56C157.567 10.46 157.707 10.4 157.847 10.38C158.007 10.34 158.157 10.28 158.297 10.2C158.337 9.98 158.467 9.85 158.687 9.81C158.927 9.75 159.067 9.64 159.107 9.48H159.227L159.737 9.15L159.917 9.24L160.337 8.97C160.457 8.97 160.567 8.96 160.667 8.94C160.787 8.92 160.897 8.91 160.997 8.91L161.117 8.97C160.717 9.11 160.257 9.34 159.737 9.66C159.217 9.96 158.707 10.32 158.207 10.74C157.727 11.14 157.327 11.58 157.007 12.06C156.687 12.54 156.527 13.02 156.527 13.5C156.527 13.88 156.727 14.07 157.127 14.07C157.487 14.07 157.857 13.96 158.237 13.74C158.637 13.52 158.997 13.25 159.317 12.93C159.637 12.61 159.867 12.3 160.007 12L160.517 11.58C160.557 11.48 160.607 11.41 160.667 11.37C160.727 11.33 160.767 11.26 160.787 11.16C160.927 11.14 161.027 11.02 161.087 10.8C161.147 10.58 161.217 10.34 161.297 10.08C161.377 9.8 161.487 9.56 161.627 9.36C161.767 9.16 161.977 9.06 162.257 9.06C162.477 9.06 162.727 9.16 163.007 9.36C163.287 9.54 163.427 9.76 163.427 10.02C163.427 10.16 163.307 10.43 163.067 10.83C162.827 11.23 162.547 11.7 162.227 12.24C161.927 12.78 161.657 13.34 161.417 13.92C161.177 14.5 161.057 15.05 161.057 15.57C161.057 15.79 161.097 16.01 161.177 16.23C161.277 16.45 161.337 16.67 161.357 16.89L161.327 16.98ZM171.327 14.7C171.027 14.7 170.797 14.58 170.637 14.34L169.947 14.01C169.867 13.83 169.827 13.61 169.827 13.35C169.827 12.93 169.927 12.48 170.127 12C170.347 11.5 170.557 11.08 170.757 10.74C170.617 10.66 170.497 10.56 170.397 10.44C170.297 10.32 170.197 10.2 170.097 10.08L170.007 10.02C169.927 10.1 169.837 10.17 169.737 10.23C169.637 10.29 169.537 10.33 169.437 10.35C169.257 10.53 168.997 10.83 168.657 11.25C168.317 11.65 167.947 12.07 167.547 12.51C167.147 12.93 166.757 13.3 166.377 13.62C166.017 13.94 165.727 14.1 165.507 14.1L165.477 14.04C165.497 13.92 165.587 13.79 165.747 13.65C165.927 13.49 166.057 13.37 166.137 13.29C166.177 13.13 166.277 12.99 166.437 12.87C166.597 12.75 166.747 12.66 166.887 12.6H166.917L167.097 12.33L167.247 12.24L167.217 12.21L167.427 12.06C167.467 11.96 167.527 11.87 167.607 11.79C167.687 11.71 167.757 11.63 167.817 11.55V11.49C168.257 11.15 168.657 10.78 169.017 10.38C169.397 9.96 169.787 9.55 170.187 9.15L170.217 9.12L170.187 8.94C170.187 8.72 170.237 8.48 170.337 8.22C170.457 7.94 170.587 7.73 170.727 7.59C170.867 7.39 171.037 7.18 171.237 6.96C171.457 6.72 171.697 6.6 171.957 6.6C172.157 6.6 172.277 6.7 172.317 6.9C172.357 7.08 172.377 7.24 172.377 7.38C172.377 7.88 172.247 8.27 171.987 8.55C171.727 8.81 171.457 9.01 171.177 9.15C170.917 9.29 170.787 9.44 170.787 9.6L171.267 9.81L171.447 9.66L171.477 9.69H171.537C171.657 9.63 171.777 9.58 171.897 9.54C172.017 9.48 172.147 9.45 172.287 9.45C172.407 9.45 172.527 9.49 172.647 9.57C172.767 9.63 172.867 9.69 172.947 9.75L172.977 10.02C172.997 10.2 172.917 10.4 172.737 10.62C172.577 10.82 172.377 11.06 172.137 11.34C171.897 11.6 171.687 11.92 171.507 12.3C171.327 12.66 171.237 13.08 171.237 13.56C171.237 13.68 171.257 13.81 171.297 13.95C171.357 14.07 171.467 14.13 171.627 14.13C171.867 14.13 172.137 14.04 172.437 13.86C172.737 13.68 173.037 13.48 173.337 13.26C173.637 13.02 173.887 12.84 174.087 12.72L174.207 12.87C174.207 13.01 174.087 13.18 173.847 13.38C173.607 13.58 173.317 13.78 172.977 13.98C172.637 14.18 172.307 14.35 171.987 14.49C171.687 14.63 171.467 14.7 171.327 14.7Z" fill="white"/>
</svg>
